<ttFont>
<head>
    <!-- Most of this table will be recalculated by the compiler -->
    <tableVersion value="1.0"/>
    <fontRevision value="0.84999"/>
    <checkSumAdjustment value="0xcea81106"/>
    <magicNumber value="0x5f0f3cf5"/>
    <flags value="00000000 00000111"/>
    <unitsPerEm value="1000"/>
    <created value="Sat Nov 28 12:14:13 2020"/>
    <modified value="Wed Sep  1 18:33:29 2021"/>
    <xMin value="-135"/>
    <yMin value="-216"/>
    <xMax value="629"/>
    <yMax value="1024"/>
    <macStyle value="00000000 00000000"/>
    <lowestRecPPEM value="7"/>
    <fontDirectionHint value="2"/>
    <indexToLocFormat value="0"/>
    <glyphDataFormat value="0"/>
  </head>
    <TTGlyph name=".notdef" xMin="98" yMin="-200" xMax="431" yMax="850">
      <contour>
        <pt x="431" y="-200" on="1"/>
        <pt x="98" y="-200" on="1"/>
        <pt x="98" y="850" on="1"/>
        <pt x="431" y="850" on="1"/>
      </contour>
      <contour>
        <pt x="350" y="-128" on="1"/>
        <pt x="350" y="-93" on="1"/>
        <pt x="243" y="-93" on="1"/>
        <pt x="316" y="-44" on="1"/>
        <pt x="350" y="-44" on="1"/>
        <pt x="350" y="-9" on="1"/>
        <pt x="175" y="-9" on="1"/>
        <pt x="175" y="-44" on="1"/>
        <pt x="249" y="-44" on="1"/>
        <pt x="175" y="-93" on="1"/>
        <pt x="175" y="-128" on="1"/>
      </contour>
      <contour>
        <pt x="350" y="15" on="1"/>
        <pt x="350" y="134" on="1"/>
        <pt x="175" y="134" on="1"/>
        <pt x="175" y="15" on="1"/>
      </contour>
      <contour>
        <pt x="350" y="197" on="1"/>
        <pt x="350" y="316" on="1"/>
        <pt x="245" y="316" on="1"/>
        <pt x="245" y="257" on="1"/>
        <pt x="280" y="257" on="1"/>
        <pt x="280" y="281" on="1"/>
        <pt x="315" y="281" on="1"/>
        <pt x="315" y="232" on="1"/>
        <pt x="210" y="232" on="1"/>
        <pt x="210" y="316" on="1"/>
        <pt x="175" y="316" on="1"/>
        <pt x="175" y="197" on="1"/>
      </contour>
      <contour>
        <pt x="350" y="339" on="1"/>
        <pt x="350" y="444" on="1"/>
        <pt x="315" y="444" on="1"/>
        <pt x="315" y="374" on="1"/>
        <pt x="175" y="374" on="1"/>
        <pt x="175" y="339" on="1"/>
      </contour>
      <contour>
        <pt x="280" y="399" on="1"/>
        <pt x="280" y="472" on="1"/>
        <pt x="350" y="472" on="1"/>
        <pt x="350" y="507" on="1"/>
        <pt x="175" y="507" on="1"/>
        <pt x="175" y="472" on="1"/>
        <pt x="245" y="472" on="1"/>
        <pt x="245" y="433" on="1"/>
        <pt x="175" y="433" on="1"/>
        <pt x="175" y="399" on="1"/>
      </contour>
      <contour>
        <pt x="350" y="535" on="1"/>
        <pt x="350" y="571" on="1"/>
        <pt x="280" y="571" on="1"/>
        <pt x="280" y="644" on="1"/>
        <pt x="175" y="644" on="1"/>
        <pt x="175" y="535" on="1"/>
      </contour>
      <contour>
        <pt x="350" y="672" on="1"/>
        <pt x="350" y="706" on="1"/>
        <pt x="280" y="706" on="1"/>
        <pt x="280" y="745" on="1"/>
        <pt x="350" y="745" on="1"/>
        <pt x="350" y="780" on="1"/>
        <pt x="176" y="780" on="1"/>
        <pt x="176" y="745" on="1"/>
        <pt x="245" y="745" on="1"/>
        <pt x="245" y="706" on="1"/>
        <pt x="175" y="706" on="1"/>
        <pt x="175" y="672" on="1"/>
      </contour>
      <contour>
        <pt x="210" y="99" on="1"/>
        <pt x="315" y="99" on="1"/>
        <pt x="315" y="50" on="1"/>
        <pt x="210" y="50" on="1"/>
      </contour>
      <contour>
        <pt x="210" y="609" on="1"/>
        <pt x="245" y="609" on="1"/>
        <pt x="245" y="571" on="1"/>
        <pt x="210" y="571" on="1"/>
      </contour>
    </TTGlyph>
    <TTGlyph name="A" xMin="49" yMin="0" xMax="601" yMax="800">
      <contour>
        <pt x="421" y="272" on="1"/>
        <pt x="223" y="272" on="1"/>
        <pt x="163" y="0" on="1"/>
        <pt x="49" y="0" on="1"/>
        <pt x="234" y="800" on="1"/>
        <pt x="416" y="800" on="1"/>
        <pt x="601" y="0" on="1"/>
        <pt x="482" y="0" on="1"/>
      </contour>
      <contour>
        <pt x="398" y="378" on="1"/>
        <pt x="322" y="716" on="1"/>
        <pt x="247" y="378" on="1"/>
      </contour>
    </TTGlyph>
    <TTGlyph name="B" xMin="107" yMin="0" xMax="591" yMax="800">
      <contour>
        <pt x="457" y="800" on="0"/>
        <pt x="591" y="685" on="0"/>
        <pt x="591" y="582" on="1"/>
        <pt x="591" y="510" on="0"/>
        <pt x="518" y="425" on="0"/>
        <pt x="448" y="416" on="1"/>
        <pt x="448" y="386" on="1"/>
        <pt x="515" y="377" on="0"/>
        <pt x="585" y="291" on="0"/>
        <pt x="585" y="218" on="1"/>
        <pt x="585" y="115" on="0"/>
        <pt x="451" y="0" on="0"/>
        <pt x="331" y="0" on="1"/>
        <pt x="107" y="0" on="1"/>
        <pt x="107" y="800" on="1"/>
        <pt x="337" y="800" on="1"/>
      </contour>
      <contour>
        <pt x="331" y="110" on="1"/>
        <pt x="400" y="110" on="0"/>
        <pt x="473" y="171" on="0"/>
        <pt x="473" y="229" on="1"/>
        <pt x="473" y="287" on="0"/>
        <pt x="400" y="348" on="0"/>
        <pt x="331" y="348" on="1"/>
        <pt x="221" y="348" on="1"/>
        <pt x="221" y="110" on="1"/>
      </contour>
      <contour>
        <pt x="337" y="454" on="1"/>
        <pt x="406" y="454" on="0"/>
        <pt x="479" y="514" on="0"/>
        <pt x="479" y="572" on="1"/>
        <pt x="479" y="630" on="0"/>
        <pt x="406" y="690" on="0"/>
        <pt x="337" y="690" on="1"/>
        <pt x="221" y="690" on="1"/>
        <pt x="221" y="454" on="1"/>
      </contour>
    </TTGlyph>
    <TTGlyph name="C" xMin="79" yMin="-16" xMax="595" yMax="816">
      <contour>
        <pt x="208" y="-16" on="0"/>
        <pt x="79" y="190" on="0"/>
        <pt x="79" y="400" on="1"/>
        <pt x="79" y="610" on="0"/>
        <pt x="212" y="816" on="0"/>
        <pt x="346" y="816" on="1"/>
        <pt x="457" y="816" on="0"/>
        <pt x="582" y="671" on="0"/>
        <pt x="595" y="527" on="1"/>
        <pt x="483" y="527" on="1"/>
        <pt x="472" y="620" on="0"/>
        <pt x="407" y="706" on="0"/>
        <pt x="346" y="706" on="1"/>
        <pt x="267" y="706" on="0"/>
        <pt x="193" y="559" on="0"/>
        <pt x="193" y="400" on="1"/>
        <pt x="193" y="241" on="0"/>
        <pt x="262" y="94" on="0"/>
        <pt x="338" y="94" on="1"/>
        <pt x="397" y="94" on="0"/>
        <pt x="462" y="174" on="0"/>
        <pt x="472" y="259" on="1"/>
        <pt x="584" y="259" on="1"/>
        <pt x="556" y="-16" on="0"/>
        <pt x="338" y="-16" on="1"/>
      </contour>
    </TTGlyph>
    <TTGlyph name="D" xMin="87" yMin="0" xMax="583" yMax="800">
      <contour>
        <pt x="87" y="800" on="1"/>
        <pt x="284" y="800" on="1"/>
        <pt x="435" y="800" on="0"/>
        <pt x="583" y="602" on="0"/>
        <pt x="583" y="400" on="1"/>
        <pt x="583" y="198" on="0"/>
        <pt x="435" y="0" on="0"/>
        <pt x="284" y="0" on="1"/>
        <pt x="87" y="0" on="1"/>
      </contour>
      <contour>
        <pt x="284" y="110" on="1"/>
        <pt x="378" y="110" on="0"/>
        <pt x="469" y="254" on="0"/>
        <pt x="469" y="400" on="1"/>
        <pt x="469" y="546" on="0"/>
        <pt x="378" y="690" on="0"/>
        <pt x="284" y="690" on="1"/>
        <pt x="201" y="690" on="1"/>
        <pt x="201" y="110" on="1"/>
      </contour>
    </TTGlyph>
    <TTGlyph name="E" xMin="127" yMin="0" xMax="577" yMax="800">
      <contour>
        <pt x="127" y="800" on="1"/>
        <pt x="577" y="800" on="1"/>
        <pt x="577" y="690" on="1"/>
        <pt x="241" y="690" on="1"/>
        <pt x="241" y="456" on="1"/>
        <pt x="523" y="456" on="1"/>
        <pt x="523" y="350" on="1"/>
        <pt x="241" y="350" on="1"/>
        <pt x="241" y="110" on="1"/>
        <pt x="557" y="110" on="1"/>
        <pt x="557" y="0" on="1"/>
        <pt x="127" y="0" on="1"/>
      </contour>
    </TTGlyph>
    <TTGlyph name="Euro" xMin="40" yMin="-16" xMax="603" yMax="816">
      <contour>
        <pt x="163" y="-16" on="0"/>
        <pt x="130" y="273" on="1"/>
        <pt x="40" y="273" on="1"/>
        <pt x="40" y="365" on="1"/>
        <pt x="123" y="365" on="1"/>
        <pt x="123" y="400" on="1"/>
        <pt x="123" y="430" on="0"/>
        <pt x="124" y="445" on="1"/>
        <pt x="40" y="445" on="1"/>
        <pt x="40" y="537" on="1"/>
        <pt x="131" y="537" on="1"/>
        <pt x="167" y="816" on="0"/>
        <pt x="370" y="816" on="1"/>
        <pt x="476" y="816" on="0"/>
        <pt x="595" y="676" on="0"/>
        <pt x="603" y="541" on="1"/>
        <pt x="493" y="541" on="1"/>
        <pt x="485" y="627" on="0"/>
        <pt x="426" y="706" on="0"/>
        <pt x="370" y="706" on="1"/>
        <pt x="317" y="706" on="0"/>
        <pt x="254" y="624" on="0"/>
        <pt x="242" y="537" on="1"/>
        <pt x="417" y="537" on="1"/>
        <pt x="417" y="445" on="1"/>
        <pt x="235" y="445" on="1"/>
        <pt x="234" y="431" on="0"/>
        <pt x="234" y="400" on="1"/>
        <pt x="234" y="365" on="1"/>
        <pt x="417" y="365" on="1"/>
        <pt x="417" y="273" on="1"/>
        <pt x="241" y="273" on="1"/>
        <pt x="251" y="181" on="0"/>
        <pt x="313" y="94" on="0"/>
        <pt x="367" y="94" on="1"/>
        <pt x="417" y="94" on="0"/>
        <pt x="469" y="164" on="0"/>
        <pt x="476" y="239" on="1"/>
        <pt x="587" y="239" on="1"/>
        <pt x="579" y="114" on="0"/>
        <pt x="467" y="-16" on="0"/>
        <pt x="367" y="-16" on="1"/>
      </contour>
    </TTGlyph>
    <TTGlyph name="F" xMin="140" yMin="0" xMax="590" yMax="800">
      <contour>
        <pt x="140" y="800" on="1"/>
        <pt x="590" y="800" on="1"/>
        <pt x="590" y="690" on="1"/>
        <pt x="254" y="690" on="1"/>
        <pt x="254" y="446" on="1"/>
        <pt x="547" y="446" on="1"/>
        <pt x="547" y="336" on="1"/>
        <pt x="254" y="336" on="1"/>
        <pt x="254" y="0" on="1"/>
        <pt x="140" y="0" on="1"/>
      </contour>
    </TTGlyph>
    <TTGlyph name="G" xMin="68" yMin="-16" xMax="585" yMax="816">
      <contour>
        <pt x="188" y="-16" on="0"/>
        <pt x="68" y="196" on="0"/>
        <pt x="68" y="400" on="1"/>
        <pt x="68" y="609" on="0"/>
        <pt x="203" y="816" on="0"/>
        <pt x="339" y="816" on="1"/>
        <pt x="559" y="816" on="0"/>
        <pt x="585" y="547" on="1"/>
        <pt x="473" y="547" on="1"/>
        <pt x="463" y="629" on="0"/>
        <pt x="398" y="706" on="0"/>
        <pt x="339" y="706" on="1"/>
        <pt x="258" y="706" on="0"/>
        <pt x="182" y="559" on="0"/>
        <pt x="182" y="400" on="1"/>
        <pt x="182" y="240" on="0"/>
        <pt x="256" y="90" on="0"/>
        <pt x="335" y="90" on="1"/>
        <pt x="391" y="90" on="0"/>
        <pt x="453" y="186" on="0"/>
        <pt x="465" y="290" on="1"/>
        <pt x="319" y="290" on="1"/>
        <pt x="319" y="400" on="1"/>
        <pt x="559" y="400" on="1"/>
        <pt x="559" y="0" on="1"/>
        <pt x="461" y="0" on="1"/>
        <pt x="461" y="80" on="1"/>
        <pt x="431" y="80" on="1"/>
        <pt x="406" y="-16" on="0"/>
        <pt x="299" y="-16" on="1"/>
      </contour>
    </TTGlyph>
    <TTGlyph name="H" xMin="87" yMin="0" xMax="563" yMax="800">
      <contour>
        <pt x="201" y="800" on="1"/>
        <pt x="201" y="456" on="1"/>
        <pt x="449" y="456" on="1"/>
        <pt x="449" y="800" on="1"/>
        <pt x="563" y="800" on="1"/>
        <pt x="563" y="0" on="1"/>
        <pt x="449" y="0" on="1"/>
        <pt x="449" y="350" on="1"/>
        <pt x="201" y="350" on="1"/>
        <pt x="201" y="0" on="1"/>
        <pt x="87" y="0" on="1"/>
        <pt x="87" y="800" on="1"/>
      </contour>
    </TTGlyph>
    <TTGlyph name="I" xMin="107" yMin="0" xMax="543" yMax="800">
      <contour>
        <pt x="107" y="110" on="1"/>
        <pt x="268" y="110" on="1"/>
        <pt x="268" y="690" on="1"/>
        <pt x="107" y="690" on="1"/>
        <pt x="107" y="800" on="1"/>
        <pt x="543" y="800" on="1"/>
        <pt x="543" y="690" on="1"/>
        <pt x="382" y="690" on="1"/>
        <pt x="382" y="110" on="1"/>
        <pt x="543" y="110" on="1"/>
        <pt x="543" y="0" on="1"/>
        <pt x="107" y="0" on="1"/>
      </contour>
    </TTGlyph>
    <TTGlyph name="J" xMin="87" yMin="-16" xMax="541" yMax="800">
      <contour>
        <pt x="206" y="-16" on="0"/>
        <pt x="87" y="110" on="0"/>
        <pt x="87" y="223" on="1"/>
        <pt x="87" y="350" on="1"/>
        <pt x="199" y="350" on="1"/>
        <pt x="199" y="223" on="1"/>
        <pt x="199" y="160" on="0"/>
        <pt x="257" y="94" on="0"/>
        <pt x="313" y="94" on="1"/>
        <pt x="369" y="94" on="0"/>
        <pt x="427" y="160" on="0"/>
        <pt x="427" y="223" on="1"/>
        <pt x="427" y="690" on="1"/>
        <pt x="145" y="690" on="1"/>
        <pt x="145" y="800" on="1"/>
        <pt x="541" y="800" on="1"/>
        <pt x="541" y="223" on="1"/>
        <pt x="541" y="110" on="0"/>
        <pt x="421" y="-16" on="0"/>
        <pt x="313" y="-16" on="1"/>
      </contour>
    </TTGlyph>
    <TTGlyph name="K" xMin="120" yMin="0" xMax="620" yMax="800">
      <contour>
        <pt x="234" y="800" on="1"/>
        <pt x="234" y="437" on="1"/>
        <pt x="489" y="800" on="1"/>
        <pt x="620" y="800" on="1"/>
        <pt x="328" y="390" on="1"/>
        <pt x="607" y="0" on="1"/>
        <pt x="470" y="0" on="1"/>
        <pt x="234" y="335" on="1"/>
        <pt x="234" y="0" on="1"/>
        <pt x="120" y="0" on="1"/>
        <pt x="120" y="800" on="1"/>
      </contour>
    </TTGlyph>
    <TTGlyph name="L" xMin="158" yMin="0" xMax="588" yMax="800">
      <contour>
        <pt x="158" y="800" on="1"/>
        <pt x="272" y="800" on="1"/>
        <pt x="272" y="110" on="1"/>
        <pt x="588" y="110" on="1"/>
        <pt x="588" y="0" on="1"/>
        <pt x="158" y="0" on="1"/>
      </contour>
    </TTGlyph>
    <TTGlyph name="M" xMin="67" yMin="0" xMax="583" yMax="800">
      <contour>
        <pt x="67" y="800" on="1"/>
        <pt x="255" y="800" on="1"/>
        <pt x="324" y="343" on="1"/>
        <pt x="334" y="343" on="1"/>
        <pt x="402" y="800" on="1"/>
        <pt x="583" y="800" on="1"/>
        <pt x="583" y="0" on="1"/>
        <pt x="475" y="0" on="1"/>
        <pt x="475" y="437" on="1"/>
        <pt x="483" y="707" on="1"/>
        <pt x="473" y="707" on="1"/>
        <pt x="404" y="270" on="1"/>
        <pt x="246" y="270" on="1"/>
        <pt x="177" y="707" on="1"/>
        <pt x="167" y="707" on="1"/>
        <pt x="175" y="437" on="1"/>
        <pt x="175" y="0" on="1"/>
        <pt x="67" y="0" on="1"/>
      </contour>
    </TTGlyph>
    <TTGlyph name="N" xMin="87" yMin="0" xMax="563" yMax="800">
      <contour>
        <pt x="87" y="800" on="1"/>
        <pt x="293" y="800" on="1"/>
        <pt x="447" y="83" on="1"/>
        <pt x="457" y="83" on="1"/>
        <pt x="449" y="357" on="1"/>
        <pt x="449" y="800" on="1"/>
        <pt x="563" y="800" on="1"/>
        <pt x="563" y="0" on="1"/>
        <pt x="357" y="0" on="1"/>
        <pt x="203" y="717" on="1"/>
        <pt x="193" y="717" on="1"/>
        <pt x="201" y="443" on="1"/>
        <pt x="201" y="0" on="1"/>
        <pt x="87" y="0" on="1"/>
      </contour>
    </TTGlyph>
    <TTGlyph name="O" xMin="57" yMin="-16" xMax="593" yMax="816">
      <contour>
        <pt x="189" y="-16" on="0"/>
        <pt x="57" y="190" on="0"/>
        <pt x="57" y="400" on="1"/>
        <pt x="57" y="610" on="0"/>
        <pt x="189" y="816" on="0"/>
        <pt x="325" y="816" on="1"/>
        <pt x="461" y="816" on="0"/>
        <pt x="593" y="610" on="0"/>
        <pt x="593" y="400" on="1"/>
        <pt x="593" y="190" on="0"/>
        <pt x="461" y="-16" on="0"/>
        <pt x="325" y="-16" on="1"/>
      </contour>
      <contour>
        <pt x="171" y="239" on="0"/>
        <pt x="245" y="91" on="0"/>
        <pt x="325" y="91" on="1"/>
        <pt x="405" y="91" on="0"/>
        <pt x="479" y="239" on="0"/>
        <pt x="479" y="400" on="1"/>
        <pt x="479" y="561" on="0"/>
        <pt x="405" y="709" on="0"/>
        <pt x="325" y="709" on="1"/>
        <pt x="245" y="709" on="0"/>
        <pt x="171" y="561" on="0"/>
        <pt x="171" y="400" on="1"/>
      </contour>
    </TTGlyph>
    <TTGlyph name="P" xMin="120" yMin="0" xMax="606" yMax="800">
      <contour>
        <pt x="120" y="800" on="1"/>
        <pt x="360" y="800" on="1"/>
        <pt x="474" y="800" on="0"/>
        <pt x="606" y="673" on="0"/>
        <pt x="606" y="564" on="1"/>
        <pt x="606" y="456" on="0"/>
        <pt x="474" y="331" on="0"/>
        <pt x="360" y="331" on="1"/>
        <pt x="234" y="331" on="1"/>
        <pt x="234" y="0" on="1"/>
        <pt x="120" y="0" on="1"/>
      </contour>
      <contour>
        <pt x="364" y="436" on="1"/>
        <pt x="423" y="436" on="0"/>
        <pt x="492" y="504" on="0"/>
        <pt x="492" y="563" on="1"/>
        <pt x="492" y="622" on="0"/>
        <pt x="423" y="690" on="0"/>
        <pt x="364" y="690" on="1"/>
        <pt x="234" y="690" on="1"/>
        <pt x="234" y="436" on="1"/>
      </contour>
    </TTGlyph>
    <TTGlyph name="Q" xMin="57" yMin="-216" xMax="593" yMax="816">
      <contour>
        <pt x="405" y="91" on="0"/>
        <pt x="479" y="239" on="0"/>
        <pt x="479" y="400" on="1"/>
        <pt x="479" y="561" on="0"/>
        <pt x="405" y="709" on="0"/>
        <pt x="325" y="709" on="1"/>
        <pt x="245" y="709" on="0"/>
        <pt x="171" y="561" on="0"/>
        <pt x="171" y="400" on="1"/>
        <pt x="171" y="239" on="0"/>
        <pt x="245" y="91" on="0"/>
        <pt x="325" y="91" on="1"/>
      </contour>
      <contour>
        <pt x="57" y="610" on="0"/>
        <pt x="189" y="816" on="0"/>
        <pt x="325" y="816" on="1"/>
        <pt x="461" y="816" on="0"/>
        <pt x="593" y="610" on="0"/>
        <pt x="593" y="400" on="1"/>
        <pt x="593" y="199" on="0"/>
        <pt x="471" y="-7" on="0"/>
        <pt x="347" y="-15" on="1"/>
        <pt x="563" y="-108" on="1"/>
        <pt x="563" y="-216" on="1"/>
        <pt x="305" y="-105" on="1"/>
        <pt x="305" y="-15" on="1"/>
        <pt x="180" y="-8" on="0"/>
        <pt x="57" y="198" on="0"/>
        <pt x="57" y="400" on="1"/>
      </contour>
    </TTGlyph>
    <TTGlyph name="R" xMin="107" yMin="0" xMax="614" yMax="800">
      <contour>
        <pt x="107" y="800" on="1"/>
        <pt x="340" y="800" on="1"/>
        <pt x="458" y="800" on="0"/>
        <pt x="594" y="676" on="0"/>
        <pt x="594" y="569" on="1"/>
        <pt x="594" y="483" on="0"/>
        <pt x="501" y="370" on="0"/>
        <pt x="417" y="353" on="1"/>
        <pt x="614" y="0" on="1"/>
        <pt x="483" y="0" on="1"/>
        <pt x="299" y="345" on="1"/>
        <pt x="221" y="345" on="1"/>
        <pt x="221" y="0" on="1"/>
        <pt x="107" y="0" on="1"/>
      </contour>
      <contour>
        <pt x="342" y="447" on="1"/>
        <pt x="408" y="447" on="0"/>
        <pt x="480" y="511" on="0"/>
        <pt x="480" y="569" on="1"/>
        <pt x="480" y="627" on="0"/>
        <pt x="408" y="690" on="0"/>
        <pt x="342" y="690" on="1"/>
        <pt x="221" y="690" on="1"/>
        <pt x="221" y="447" on="1"/>
      </contour>
    </TTGlyph>
    <TTGlyph name="S" xMin="83" yMin="-16" xMax="593" yMax="816">
      <contour>
        <pt x="210" y="94" on="0"/>
        <pt x="335" y="94" on="1"/>
        <pt x="396" y="94" on="0"/>
        <pt x="461" y="161" on="0"/>
        <pt x="461" y="224" on="1"/>
        <pt x="461" y="273" on="0"/>
        <pt x="411" y="328" on="0"/>
        <pt x="361" y="336" on="1"/>
        <pt x="296" y="346" on="1"/>
        <pt x="196" y="361" on="0"/>
        <pt x="91" y="477" on="0"/>
        <pt x="91" y="574" on="1"/>
        <pt x="91" y="688" on="0"/>
        <pt x="222" y="816" on="0"/>
        <pt x="338" y="816" on="1"/>
        <pt x="451" y="816" on="0"/>
        <pt x="584" y="691" on="0"/>
        <pt x="593" y="576" on="1"/>
        <pt x="479" y="576" on="1"/>
        <pt x="466" y="706" on="0"/>
        <pt x="338" y="706" on="1"/>
        <pt x="274" y="706" on="0"/>
        <pt x="205" y="638" on="0"/>
        <pt x="205" y="574" on="1"/>
        <pt x="205" y="525" on="0"/>
        <pt x="255" y="470" on="0"/>
        <pt x="306" y="462" on="1"/>
        <pt x="371" y="452" on="1"/>
        <pt x="471" y="437" on="0"/>
        <pt x="575" y="321" on="0"/>
        <pt x="575" y="224" on="1"/>
        <pt x="575" y="111" on="0"/>
        <pt x="448" y="-16" on="0"/>
        <pt x="335" y="-16" on="1"/>
        <pt x="222" y="-16" on="0"/>
        <pt x="93" y="96" on="0"/>
        <pt x="83" y="204" on="1"/>
        <pt x="198" y="204" on="1"/>
      </contour>
    </TTGlyph>
    <TTGlyph name="T" xMin="67" yMin="0" xMax="583" yMax="800">
      <contour>
        <pt x="268" y="690" on="1"/>
        <pt x="67" y="690" on="1"/>
        <pt x="67" y="800" on="1"/>
        <pt x="583" y="800" on="1"/>
        <pt x="583" y="690" on="1"/>
        <pt x="382" y="690" on="1"/>
        <pt x="382" y="0" on="1"/>
        <pt x="268" y="0" on="1"/>
      </contour>
    </TTGlyph>
    <TTGlyph name="U" xMin="79" yMin="-16" xMax="571" yMax="800">
      <contour>
        <pt x="193" y="800" on="1"/>
        <pt x="193" y="247" on="1"/>
        <pt x="193" y="172" on="0"/>
        <pt x="260" y="94" on="0"/>
        <pt x="325" y="94" on="1"/>
        <pt x="390" y="94" on="0"/>
        <pt x="457" y="172" on="0"/>
        <pt x="457" y="247" on="1"/>
        <pt x="457" y="800" on="1"/>
        <pt x="571" y="800" on="1"/>
        <pt x="571" y="247" on="1"/>
        <pt x="571" y="122" on="0"/>
        <pt x="442" y="-16" on="0"/>
        <pt x="325" y="-16" on="1"/>
        <pt x="208" y="-16" on="0"/>
        <pt x="79" y="122" on="0"/>
        <pt x="79" y="247" on="1"/>
        <pt x="79" y="800" on="1"/>
      </contour>
    </TTGlyph>
    <TTGlyph name="V" xMin="49" yMin="0" xMax="601" yMax="800">
      <contour>
        <pt x="328" y="84" on="1"/>
        <pt x="487" y="800" on="1"/>
        <pt x="601" y="800" on="1"/>
        <pt x="416" y="0" on="1"/>
        <pt x="234" y="0" on="1"/>
        <pt x="49" y="800" on="1"/>
        <pt x="168" y="800" on="1"/>
      </contour>
    </TTGlyph>
    <TTGlyph name="W" xMin="21" yMin="0" xMax="629" yMax="800">
      <contour>
        <pt x="197" y="152" on="1"/>
        <pt x="250" y="600" on="1"/>
        <pt x="408" y="600" on="1"/>
        <pt x="458" y="156" on="1"/>
        <pt x="512" y="800" on="1"/>
        <pt x="629" y="800" on="1"/>
        <pt x="542" y="0" on="1"/>
        <pt x="380" y="0" on="1"/>
        <pt x="326" y="471" on="1"/>
        <pt x="268" y="0" on="1"/>
        <pt x="108" y="0" on="1"/>
        <pt x="21" y="800" on="1"/>
        <pt x="143" y="800" on="1"/>
      </contour>
    </TTGlyph>
    <TTGlyph name="X" xMin="48" yMin="0" xMax="602" yMax="800">
      <contour>
        <pt x="325" y="447" on="1"/>
        <pt x="477" y="800" on="1"/>
        <pt x="602" y="800" on="1"/>
        <pt x="419" y="386" on="1"/>
        <pt x="588" y="0" on="1"/>
        <pt x="457" y="0" on="1"/>
        <pt x="325" y="323" on="1"/>
        <pt x="188" y="0" on="1"/>
        <pt x="62" y="0" on="1"/>
        <pt x="232" y="386" on="1"/>
        <pt x="48" y="800" on="1"/>
        <pt x="178" y="800" on="1"/>
      </contour>
    </TTGlyph>
    <TTGlyph name="Y" xMin="38" yMin="0" xMax="612" yMax="800">
      <contour>
        <pt x="326" y="458" on="1"/>
        <pt x="487" y="800" on="1"/>
        <pt x="612" y="800" on="1"/>
        <pt x="382" y="339" on="1"/>
        <pt x="382" y="0" on="1"/>
        <pt x="268" y="0" on="1"/>
        <pt x="268" y="339" on="1"/>
        <pt x="38" y="800" on="1"/>
        <pt x="165" y="800" on="1"/>
      </contour>
    </TTGlyph>
    <TTGlyph name="Z" xMin="97" yMin="0" xMax="553" yMax="800">
      <contour>
        <pt x="97" y="193" on="1"/>
        <pt x="482" y="690" on="1"/>
        <pt x="97" y="690" on="1"/>
        <pt x="97" y="800" on="1"/>
        <pt x="553" y="800" on="1"/>
        <pt x="553" y="607" on="1"/>
        <pt x="168" y="110" on="1"/>
        <pt x="553" y="110" on="1"/>
        <pt x="553" y="0" on="1"/>
        <pt x="97" y="0" on="1"/>
      </contour>
    </TTGlyph>
    <TTGlyph name="_part.multiply" xMin="104" yMin="129" xMax="546" yMax="571">
      <contour>
        <pt x="104" y="506" on="1"/>
        <pt x="169" y="571" on="1"/>
        <pt x="546" y="194" on="1"/>
        <pt x="481" y="129" on="1"/>
      </contour>
    </TTGlyph>
    <TTGlyph name="a" xMin="68" yMin="-16" xMax="533" yMax="616">
      <contour>
        <pt x="77" y="499" on="0"/>
        <pt x="209" y="616" on="0"/>
        <pt x="316" y="616" on="1"/>
        <pt x="420" y="616" on="0"/>
        <pt x="533" y="514" on="0"/>
        <pt x="533" y="420" on="1"/>
        <pt x="533" y="0" on="1"/>
        <pt x="423" y="0" on="1"/>
        <pt x="423" y="67" on="1"/>
        <pt x="393" y="67" on="1"/>
        <pt x="380" y="28" on="0"/>
        <pt x="311" y="-16" on="0"/>
        <pt x="262" y="-16" on="1"/>
        <pt x="186" y="-16" on="0"/>
        <pt x="96" y="77" on="0"/>
        <pt x="96" y="154" on="1"/>
        <pt x="96" y="231" on="0"/>
        <pt x="187" y="330" on="0"/>
        <pt x="274" y="346" on="1"/>
        <pt x="423" y="373" on="1"/>
        <pt x="423" y="400" on="1"/>
        <pt x="423" y="456" on="0"/>
        <pt x="369" y="513" on="0"/>
        <pt x="316" y="513" on="1"/>
        <pt x="258" y="513" on="0"/>
        <pt x="187" y="453" on="0"/>
        <pt x="179" y="397" on="1"/>
        <pt x="68" y="397" on="1"/>
      </contour>
      <contour>
        <pt x="209" y="124" on="0"/>
        <pt x="252" y="84" on="0"/>
        <pt x="292" y="84" on="1"/>
        <pt x="328" y="84" on="0"/>
        <pt x="388" y="125" on="0"/>
        <pt x="423" y="196" on="0"/>
        <pt x="423" y="238" on="1"/>
        <pt x="423" y="273" on="1"/>
        <pt x="294" y="250" on="1"/>
        <pt x="209" y="233" on="0"/>
        <pt x="209" y="161" on="1"/>
      </contour>
    </TTGlyph>
    <TTGlyph name="ampersand" xMin="77" yMin="-24" xMax="573" yMax="816">
      <contour>
        <pt x="174" y="511" on="0"/>
        <pt x="136" y="600" on="0"/>
        <pt x="136" y="643" on="1"/>
        <pt x="136" y="723" on="0"/>
        <pt x="223" y="816" on="0"/>
        <pt x="298" y="816" on="1"/>
        <pt x="372" y="816" on="0"/>
        <pt x="457" y="723" on="0"/>
        <pt x="457" y="643" on="1"/>
        <pt x="457" y="582" on="0"/>
        <pt x="402" y="487" on="0"/>
        <pt x="352" y="439" on="1"/>
        <pt x="448" y="307" on="1"/>
        <pt x="455" y="353" on="0"/>
        <pt x="457" y="410" on="1"/>
        <pt x="560" y="410" on="1"/>
        <pt x="553" y="290" on="0"/>
        <pt x="524" y="203" on="1"/>
        <pt x="573" y="136" on="1"/>
        <pt x="573" y="-24" on="1"/>
        <pt x="479" y="102" on="1"/>
        <pt x="443" y="44" on="0"/>
        <pt x="342" y="-16" on="0"/>
        <pt x="279" y="-16" on="1"/>
        <pt x="219" y="-16" on="0"/>
        <pt x="127" y="37" on="0"/>
        <pt x="77" y="133" on="0"/>
        <pt x="77" y="196" on="1"/>
        <pt x="77" y="253" on="0"/>
        <pt x="117" y="344" on="0"/>
        <pt x="175" y="410" on="0"/>
        <pt x="220" y="449" on="1"/>
        <pt x="215" y="455" on="1"/>
      </contour>
      <contour>
        <pt x="193" y="152" on="0"/>
        <pt x="244" y="94" on="0"/>
        <pt x="286" y="94" on="1"/>
        <pt x="371" y="94" on="0"/>
        <pt x="415" y="188" on="1"/>
        <pt x="279" y="369" on="1"/>
        <pt x="238" y="329" on="0"/>
        <pt x="193" y="248" on="0"/>
        <pt x="193" y="199" on="1"/>
      </contour>
      <contour>
        <pt x="245" y="609" on="0"/>
        <pt x="263" y="560" on="0"/>
        <pt x="283" y="534" on="1"/>
        <pt x="295" y="518" on="1"/>
        <pt x="320" y="546" on="0"/>
        <pt x="348" y="603" on="0"/>
        <pt x="348" y="637" on="1"/>
        <pt x="348" y="669" on="0"/>
        <pt x="321" y="706" on="0"/>
        <pt x="298" y="706" on="1"/>
        <pt x="274" y="706" on="0"/>
        <pt x="245" y="668" on="0"/>
        <pt x="245" y="636" on="1"/>
      </contour>
    </TTGlyph>
    <TTGlyph name="approxequal" xMin="80" yMin="120" xMax="570" yMax="580">
      <component glyphName="asciitilde" x="0" y="122" flags="0x4"/>
      <component glyphName="asciitilde" x="0" y="-122" flags="0x4"/>
    </TTGlyph>
    <TTGlyph name="approxequal.case" xMin="80" yMin="170" xMax="570" yMax="630">
      <component glyphName="approxequal" x="0" y="50" flags="0x4"/>
    </TTGlyph>
    <TTGlyph name="asciicircum" xMin="105" yMin="527" xMax="545" yMax="816">
      <contour>
        <pt x="264" y="816" on="1"/>
        <pt x="386" y="816" on="1"/>
        <pt x="545" y="527" on="1"/>
        <pt x="437" y="527" on="1"/>
        <pt x="325" y="740" on="1"/>
        <pt x="213" y="527" on="1"/>
        <pt x="105" y="527" on="1"/>
      </contour>
    </TTGlyph>
    <TTGlyph name="asciitilde" xMin="80" yMin="242" xMax="570" yMax="458">
      <contour>
        <pt x="383" y="242" on="0"/>
        <pt x="325" y="279" on="0"/>
        <pt x="292" y="315" on="1"/>
        <pt x="270" y="339" on="0"/>
        <pt x="239" y="362" on="0"/>
        <pt x="220" y="362" on="1"/>
        <pt x="200" y="362" on="0"/>
        <pt x="175" y="324" on="0"/>
        <pt x="171" y="289" on="1"/>
        <pt x="80" y="289" on="1"/>
        <pt x="88" y="371" on="0"/>
        <pt x="162" y="458" on="0"/>
        <pt x="223" y="458" on="1"/>
        <pt x="267" y="458" on="0"/>
        <pt x="325" y="421" on="0"/>
        <pt x="358" y="385" on="1"/>
        <pt x="380" y="361" on="0"/>
        <pt x="411" y="338" on="0"/>
        <pt x="430" y="338" on="1"/>
        <pt x="450" y="338" on="0"/>
        <pt x="475" y="376" on="0"/>
        <pt x="479" y="411" on="1"/>
        <pt x="570" y="411" on="1"/>
        <pt x="562" y="329" on="0"/>
        <pt x="488" y="242" on="0"/>
        <pt x="427" y="242" on="1"/>
      </contour>
    </TTGlyph>
    <TTGlyph name="asciitilde.case" xMin="80" yMin="292" xMax="570" yMax="508">
      <component glyphName="asciitilde" x="0" y="50" flags="0x4"/>
    </TTGlyph>
    <TTGlyph name="asterisk" xMin="84" yMin="357" xMax="566" yMax="816">
      <contour>
        <pt x="383" y="816" on="1"/>
        <pt x="368" y="640" on="1"/>
        <pt x="531" y="709" on="1"/>
        <pt x="566" y="599" on="1"/>
        <pt x="394" y="559" on="1"/>
        <pt x="510" y="425" on="1"/>
        <pt x="416" y="357" on="1"/>
        <pt x="325" y="509" on="1"/>
        <pt x="234" y="357" on="1"/>
        <pt x="140" y="425" on="1"/>
        <pt x="256" y="559" on="1"/>
        <pt x="84" y="599" on="1"/>
        <pt x="119" y="709" on="1"/>
        <pt x="282" y="640" on="1"/>
        <pt x="267" y="816" on="1"/>
      </contour>
    </TTGlyph>
    <TTGlyph name="at" xMin="60" yMin="-134" xMax="582" yMax="816">
      <contour>
        <pt x="204" y="-134" on="0"/>
        <pt x="60" y="101" on="0"/>
        <pt x="60" y="340" on="1"/>
        <pt x="60" y="580" on="0"/>
        <pt x="203" y="816" on="0"/>
        <pt x="348" y="816" on="1"/>
        <pt x="466" y="816" on="0"/>
        <pt x="582" y="670" on="0"/>
        <pt x="582" y="522" on="1"/>
        <pt x="582" y="111" on="1"/>
        <pt x="504" y="111" on="1"/>
        <pt x="504" y="162" on="1"/>
        <pt x="474" y="162" on="1"/>
        <pt x="461" y="95" on="0"/>
        <pt x="381" y="95" on="1"/>
        <pt x="313" y="95" on="0"/>
        <pt x="247" y="216" on="0"/>
        <pt x="247" y="340" on="1"/>
        <pt x="247" y="464" on="0"/>
        <pt x="313" y="585" on="0"/>
        <pt x="381" y="585" on="1"/>
        <pt x="451" y="585" on="0"/>
        <pt x="464" y="518" on="1"/>
        <pt x="494" y="518" on="1"/>
        <pt x="494" y="522" on="1"/>
        <pt x="494" y="627" on="0"/>
        <pt x="422" y="730" on="0"/>
        <pt x="348" y="730" on="1"/>
        <pt x="248" y="730" on="0"/>
        <pt x="150" y="536" on="0"/>
        <pt x="150" y="340" on="1"/>
        <pt x="150" y="144" on="0"/>
        <pt x="250" y="-50" on="0"/>
        <pt x="351" y="-50" on="1"/>
        <pt x="434" y="-50" on="0"/>
        <pt x="474" y="-19" on="1"/>
        <pt x="474" y="-101" on="1"/>
        <pt x="432" y="-134" on="0"/>
        <pt x="351" y="-134" on="1"/>
      </contour>
      <contour>
        <pt x="337" y="261" on="0"/>
        <pt x="376" y="183" on="0"/>
        <pt x="417" y="183" on="1"/>
        <pt x="458" y="183" on="0"/>
        <pt x="498" y="260" on="0"/>
        <pt x="498" y="340" on="1"/>
        <pt x="498" y="420" on="0"/>
        <pt x="458" y="497" on="0"/>
        <pt x="417" y="497" on="1"/>
        <pt x="376" y="497" on="0"/>
        <pt x="337" y="419" on="0"/>
        <pt x="337" y="340" on="1"/>
      </contour>
    </TTGlyph>
    <TTGlyph name="b" xMin="101" yMin="-16" xMax="587" yMax="848">
      <contour>
        <pt x="323" y="-16" on="0"/>
        <pt x="252" y="33" on="0"/>
        <pt x="241" y="78" on="1"/>
        <pt x="211" y="78" on="1"/>
        <pt x="211" y="0" on="1"/>
        <pt x="101" y="0" on="1"/>
        <pt x="101" y="848" on="1"/>
        <pt x="211" y="848" on="1"/>
        <pt x="211" y="522" on="1"/>
        <pt x="241" y="522" on="1"/>
        <pt x="252" y="567" on="0"/>
        <pt x="323" y="616" on="0"/>
        <pt x="377" y="616" on="1"/>
        <pt x="475" y="616" on="0"/>
        <pt x="587" y="448" on="0"/>
        <pt x="587" y="300" on="1"/>
        <pt x="587" y="152" on="0"/>
        <pt x="475" y="-16" on="0"/>
        <pt x="377" y="-16" on="1"/>
      </contour>
      <contour>
        <pt x="205" y="195" on="0"/>
        <pt x="275" y="85" on="0"/>
        <pt x="341" y="85" on="1"/>
        <pt x="407" y="85" on="0"/>
        <pt x="477" y="195" on="0"/>
        <pt x="477" y="300" on="1"/>
        <pt x="477" y="405" on="0"/>
        <pt x="407" y="515" on="0"/>
        <pt x="341" y="515" on="1"/>
        <pt x="275" y="515" on="0"/>
        <pt x="205" y="405" on="0"/>
        <pt x="205" y="300" on="1"/>
      </contour>
    </TTGlyph>
    <TTGlyph name="backslash" xMin="113" yMin="-170" xMax="537" yMax="848">
      <contour>
        <pt x="221" y="848" on="1"/>
        <pt x="537" y="-170" on="1"/>
        <pt x="429" y="-170" on="1"/>
        <pt x="113" y="848" on="1"/>
      </contour>
    </TTGlyph>
    <TTGlyph name="bar" xMin="278" yMin="-60" xMax="372" yMax="860">
      <contour>
        <pt x="372" y="-60" on="1"/>
        <pt x="278" y="-60" on="1"/>
        <pt x="278" y="860" on="1"/>
        <pt x="372" y="860" on="1"/>
      </contour>
    </TTGlyph>
    <TTGlyph name="braceleft" xMin="225" yMin="-160" xMax="507" yMax="920">
      <contour>
        <pt x="455" y="819" on="0"/>
        <pt x="395" y="766" on="0"/>
        <pt x="395" y="725" on="1"/>
        <pt x="395" y="693" on="0"/>
        <pt x="405" y="629" on="1"/>
        <pt x="415" y="563" on="0"/>
        <pt x="415" y="532" on="1"/>
        <pt x="415" y="466" on="0"/>
        <pt x="356" y="394" on="0"/>
        <pt x="295" y="387" on="1"/>
        <pt x="295" y="373" on="1"/>
        <pt x="356" y="366" on="0"/>
        <pt x="415" y="294" on="0"/>
        <pt x="415" y="228" on="1"/>
        <pt x="415" y="196" on="0"/>
        <pt x="405" y="132" on="1"/>
        <pt x="395" y="66" on="0"/>
        <pt x="395" y="35" on="1"/>
        <pt x="395" y="-6" on="0"/>
        <pt x="455" y="-59" on="0"/>
        <pt x="507" y="-64" on="1"/>
        <pt x="507" y="-160" on="1"/>
        <pt x="444" y="-156" on="0"/>
        <pt x="348" y="-101" on="0"/>
        <pt x="295" y="-11" on="0"/>
        <pt x="295" y="45" on="1"/>
        <pt x="295" y="70" on="0"/>
        <pt x="305" y="124" on="1"/>
        <pt x="315" y="178" on="0"/>
        <pt x="315" y="203" on="1"/>
        <pt x="315" y="266" on="0"/>
        <pt x="272" y="323" on="0"/>
        <pt x="225" y="322" on="1"/>
        <pt x="225" y="438" on="1"/>
        <pt x="272" y="437" on="0"/>
        <pt x="315" y="494" on="0"/>
        <pt x="315" y="557" on="1"/>
        <pt x="315" y="582" on="0"/>
        <pt x="305" y="636" on="1"/>
        <pt x="295" y="690" on="0"/>
        <pt x="295" y="715" on="1"/>
        <pt x="295" y="771" on="0"/>
        <pt x="348" y="861" on="0"/>
        <pt x="444" y="916" on="0"/>
        <pt x="507" y="920" on="1"/>
        <pt x="507" y="824" on="1"/>
      </contour>
    </TTGlyph>
    <TTGlyph name="braceright" xMin="143" yMin="-160" xMax="425" yMax="920">
      <contour>
        <pt x="206" y="916" on="0"/>
        <pt x="302" y="861" on="0"/>
        <pt x="355" y="771" on="0"/>
        <pt x="355" y="715" on="1"/>
        <pt x="355" y="690" on="0"/>
        <pt x="345" y="636" on="1"/>
        <pt x="335" y="582" on="0"/>
        <pt x="335" y="557" on="1"/>
        <pt x="335" y="494" on="0"/>
        <pt x="378" y="437" on="0"/>
        <pt x="425" y="438" on="1"/>
        <pt x="425" y="322" on="1"/>
        <pt x="378" y="323" on="0"/>
        <pt x="335" y="266" on="0"/>
        <pt x="335" y="203" on="1"/>
        <pt x="335" y="178" on="0"/>
        <pt x="345" y="124" on="1"/>
        <pt x="355" y="70" on="0"/>
        <pt x="355" y="45" on="1"/>
        <pt x="355" y="-11" on="0"/>
        <pt x="302" y="-101" on="0"/>
        <pt x="206" y="-156" on="0"/>
        <pt x="143" y="-160" on="1"/>
        <pt x="143" y="-64" on="1"/>
        <pt x="195" y="-59" on="0"/>
        <pt x="255" y="-6" on="0"/>
        <pt x="255" y="35" on="1"/>
        <pt x="255" y="66" on="0"/>
        <pt x="245" y="132" on="1"/>
        <pt x="235" y="196" on="0"/>
        <pt x="235" y="228" on="1"/>
        <pt x="235" y="294" on="0"/>
        <pt x="294" y="366" on="0"/>
        <pt x="355" y="373" on="1"/>
        <pt x="355" y="387" on="1"/>
        <pt x="294" y="394" on="0"/>
        <pt x="235" y="466" on="0"/>
        <pt x="235" y="532" on="1"/>
        <pt x="235" y="563" on="0"/>
        <pt x="245" y="629" on="1"/>
        <pt x="255" y="693" on="0"/>
        <pt x="255" y="725" on="1"/>
        <pt x="255" y="766" on="0"/>
        <pt x="195" y="819" on="0"/>
        <pt x="143" y="824" on="1"/>
        <pt x="143" y="920" on="1"/>
      </contour>
    </TTGlyph>
    <TTGlyph name="bracketleft" xMin="283" yMin="-150" xMax="507" yMax="910">
      <contour>
        <pt x="507" y="816" on="1"/>
        <pt x="381" y="816" on="1"/>
        <pt x="381" y="-56" on="1"/>
        <pt x="507" y="-56" on="1"/>
        <pt x="507" y="-150" on="1"/>
        <pt x="283" y="-150" on="1"/>
        <pt x="283" y="910" on="1"/>
        <pt x="507" y="910" on="1"/>
      </contour>
    </TTGlyph>
    <TTGlyph name="bracketright" xMin="143" yMin="-150" xMax="367" yMax="910">
      <contour>
        <pt x="367" y="910" on="1"/>
        <pt x="367" y="-150" on="1"/>
        <pt x="143" y="-150" on="1"/>
        <pt x="143" y="-56" on="1"/>
        <pt x="269" y="-56" on="1"/>
        <pt x="269" y="816" on="1"/>
        <pt x="143" y="816" on="1"/>
        <pt x="143" y="910" on="1"/>
      </contour>
    </TTGlyph>
    <TTGlyph name="bullet" xMin="142" yMin="167" xMax="508" yMax="533">
      <contour>
        <pt x="236" y="167" on="0"/>
        <pt x="142" y="261" on="0"/>
        <pt x="142" y="350" on="1"/>
        <pt x="142" y="439" on="0"/>
        <pt x="236" y="533" on="0"/>
        <pt x="325" y="533" on="1"/>
        <pt x="414" y="533" on="0"/>
        <pt x="508" y="439" on="0"/>
        <pt x="508" y="350" on="1"/>
        <pt x="508" y="261" on="0"/>
        <pt x="414" y="167" on="0"/>
        <pt x="325" y="167" on="1"/>
      </contour>
    </TTGlyph>
    <TTGlyph name="c" xMin="93" yMin="-16" xMax="579" yMax="616">
      <contour>
        <pt x="224" y="-16" on="0"/>
        <pt x="93" y="150" on="0"/>
        <pt x="93" y="297" on="1"/>
        <pt x="93" y="447" on="0"/>
        <pt x="229" y="616" on="0"/>
        <pt x="348" y="616" on="1"/>
        <pt x="447" y="616" on="0"/>
        <pt x="572" y="482" on="0"/>
        <pt x="579" y="368" on="1"/>
        <pt x="475" y="368" on="1"/>
        <pt x="468" y="438" on="0"/>
        <pt x="401" y="513" on="0"/>
        <pt x="345" y="513" on="1"/>
        <pt x="276" y="513" on="0"/>
        <pt x="202" y="402" on="0"/>
        <pt x="202" y="297" on="1"/>
        <pt x="202" y="195" on="0"/>
        <pt x="273" y="87" on="0"/>
        <pt x="340" y="87" on="1"/>
        <pt x="393" y="87" on="0"/>
        <pt x="457" y="153" on="0"/>
        <pt x="463" y="214" on="1"/>
        <pt x="567" y="214" on="1"/>
        <pt x="561" y="108" on="0"/>
        <pt x="438" y="-16" on="0"/>
        <pt x="340" y="-16" on="1"/>
      </contour>
    </TTGlyph>
    <TTGlyph name="cent" xMin="93" yMin="-100" xMax="579" yMax="700">
      <contour>
        <pt x="300" y="-13" on="1"/>
        <pt x="202" y="1" on="0"/>
        <pt x="93" y="164" on="0"/>
        <pt x="93" y="297" on="1"/>
        <pt x="93" y="431" on="0"/>
        <pt x="202" y="595" on="0"/>
        <pt x="300" y="612" on="1"/>
        <pt x="300" y="700" on="1"/>
        <pt x="380" y="700" on="1"/>
        <pt x="380" y="614" on="1"/>
        <pt x="466" y="603" on="0"/>
        <pt x="573" y="472" on="0"/>
        <pt x="579" y="368" on="1"/>
        <pt x="475" y="368" on="1"/>
        <pt x="470" y="426" on="0"/>
        <pt x="421" y="498" on="0"/>
        <pt x="380" y="509" on="1"/>
        <pt x="380" y="93" on="1"/>
        <pt x="416" y="104" on="0"/>
        <pt x="459" y="166" on="0"/>
        <pt x="463" y="214" on="1"/>
        <pt x="567" y="214" on="1"/>
        <pt x="562" y="120" on="0"/>
        <pt x="461" y="-1" on="0"/>
        <pt x="380" y="-13" on="1"/>
        <pt x="380" y="-100" on="1"/>
        <pt x="300" y="-100" on="1"/>
      </contour>
      <contour>
        <pt x="202" y="212" on="0"/>
        <pt x="252" y="108" on="0"/>
        <pt x="300" y="93" on="1"/>
        <pt x="300" y="506" on="1"/>
        <pt x="252" y="489" on="0"/>
        <pt x="202" y="383" on="0"/>
        <pt x="202" y="297" on="1"/>
      </contour>
    </TTGlyph>
    <TTGlyph name="cent.bold" xMin="93" yMin="-100" xMax="579" yMax="700">
      <contour>
        <pt x="380" y="700" on="1"/>
        <pt x="380" y="614" on="1"/>
        <pt x="466" y="603" on="0"/>
        <pt x="573" y="472" on="0"/>
        <pt x="579" y="368" on="1"/>
        <pt x="475" y="368" on="1"/>
        <pt x="468" y="438" on="0"/>
        <pt x="401" y="513" on="0"/>
        <pt x="345" y="513" on="1"/>
        <pt x="276" y="513" on="0"/>
        <pt x="202" y="402" on="0"/>
        <pt x="202" y="297" on="1"/>
        <pt x="202" y="195" on="0"/>
        <pt x="273" y="87" on="0"/>
        <pt x="340" y="87" on="1"/>
        <pt x="393" y="87" on="0"/>
        <pt x="457" y="153" on="0"/>
        <pt x="463" y="214" on="1"/>
        <pt x="567" y="214" on="1"/>
        <pt x="562" y="120" on="0"/>
        <pt x="461" y="-1" on="0"/>
        <pt x="380" y="-13" on="1"/>
        <pt x="380" y="-100" on="1"/>
        <pt x="300" y="-100" on="1"/>
        <pt x="300" y="-13" on="1"/>
        <pt x="202" y="1" on="0"/>
        <pt x="93" y="164" on="0"/>
        <pt x="93" y="297" on="1"/>
        <pt x="93" y="431" on="0"/>
        <pt x="202" y="595" on="0"/>
        <pt x="300" y="612" on="1"/>
        <pt x="300" y="700" on="1"/>
      </contour>
    </TTGlyph>
    <TTGlyph name="colon" xMin="239" yMin="-8" xMax="411" yMax="608">
      <component glyphName="period" x="0" y="0" flags="0x0"/>
      <component glyphName="period" x="0" y="421" flags="0x4"/>
    </TTGlyph>
    <TTGlyph name="colon.case" xMin="239" yMin="92" xMax="411" yMax="708">
      <component glyphName="colon" x="0" y="100" flags="0x4"/>
    </TTGlyph>
    <TTGlyph name="comma" xMin="229" yMin="-180" xMax="421" yMax="187">
      <contour>
        <pt x="283" y="-8" on="0"/>
        <pt x="239" y="42" on="0"/>
        <pt x="239" y="89" on="1"/>
        <pt x="239" y="137" on="0"/>
        <pt x="283" y="187" on="0"/>
        <pt x="325" y="187" on="1"/>
        <pt x="374" y="187" on="0"/>
        <pt x="421" y="127" on="0"/>
        <pt x="421" y="66" on="1"/>
        <pt x="421" y="-11" on="0"/>
        <pt x="391" y="-131" on="0"/>
        <pt x="359" y="-180" on="1"/>
        <pt x="229" y="-180" on="1"/>
        <pt x="330" y="-102" on="0"/>
        <pt x="348" y="-6" on="1"/>
        <pt x="334" y="-8" on="0"/>
        <pt x="325" y="-8" on="1"/>
      </contour>
    </TTGlyph>
    <TTGlyph name="copyright" xMin="57" yMin="102" xMax="593" yMax="698">
      <contour>
        <pt x="247" y="102" on="0"/>
        <pt x="125" y="178" on="0"/>
        <pt x="57" y="314" on="0"/>
        <pt x="57" y="400" on="1"/>
        <pt x="57" y="486" on="0"/>
        <pt x="125" y="622" on="0"/>
        <pt x="247" y="698" on="0"/>
        <pt x="325" y="698" on="1"/>
        <pt x="403" y="698" on="0"/>
        <pt x="525" y="622" on="0"/>
        <pt x="593" y="486" on="0"/>
        <pt x="593" y="400" on="1"/>
        <pt x="593" y="314" on="0"/>
        <pt x="525" y="178" on="0"/>
        <pt x="403" y="102" on="0"/>
        <pt x="325" y="102" on="1"/>
      </contour>
      <contour>
        <pt x="121" y="330" on="0"/>
        <pt x="172" y="224" on="0"/>
        <pt x="264" y="166" on="0"/>
        <pt x="325" y="166" on="1"/>
        <pt x="386" y="166" on="0"/>
        <pt x="478" y="224" on="0"/>
        <pt x="529" y="330" on="0"/>
        <pt x="529" y="400" on="1"/>
        <pt x="529" y="470" on="0"/>
        <pt x="478" y="576" on="0"/>
        <pt x="386" y="634" on="0"/>
        <pt x="325" y="634" on="1"/>
        <pt x="264" y="634" on="0"/>
        <pt x="172" y="576" on="0"/>
        <pt x="121" y="470" on="0"/>
        <pt x="121" y="400" on="1"/>
      </contour>
      <contour>
        <pt x="193" y="471" on="0"/>
        <pt x="267" y="558" on="0"/>
        <pt x="328" y="558" on="1"/>
        <pt x="381" y="558" on="0"/>
        <pt x="451" y="488" on="0"/>
        <pt x="458" y="430" on="1"/>
        <pt x="392" y="430" on="1"/>
        <pt x="387" y="460" on="0"/>
        <pt x="353" y="495" on="0"/>
        <pt x="328" y="495" on="1"/>
        <pt x="295" y="495" on="0"/>
        <pt x="257" y="444" on="0"/>
        <pt x="257" y="400" on="1"/>
        <pt x="257" y="359" on="0"/>
        <pt x="295" y="308" on="0"/>
        <pt x="326" y="308" on="1"/>
        <pt x="348" y="308" on="0"/>
        <pt x="377" y="337" on="0"/>
        <pt x="380" y="361" on="1"/>
        <pt x="446" y="361" on="1"/>
        <pt x="441" y="310" on="0"/>
        <pt x="375" y="245" on="0"/>
        <pt x="326" y="245" on="1"/>
        <pt x="268" y="245" on="0"/>
        <pt x="193" y="333" on="0"/>
        <pt x="193" y="400" on="1"/>
      </contour>
    </TTGlyph>
    <TTGlyph name="currency" xMin="70" yMin="95" xMax="580" yMax="605">
      <contour>
        <pt x="260" y="140" on="0"/>
        <pt x="208" y="176" on="1"/>
        <pt x="127" y="95" on="1"/>
        <pt x="70" y="152" on="1"/>
        <pt x="151" y="233" on="1"/>
        <pt x="115" y="285" on="0"/>
        <pt x="115" y="350" on="1"/>
        <pt x="115" y="415" on="0"/>
        <pt x="151" y="467" on="1"/>
        <pt x="70" y="548" on="1"/>
        <pt x="127" y="605" on="1"/>
        <pt x="208" y="524" on="1"/>
        <pt x="260" y="560" on="0"/>
        <pt x="325" y="560" on="1"/>
        <pt x="390" y="560" on="0"/>
        <pt x="442" y="524" on="1"/>
        <pt x="523" y="605" on="1"/>
        <pt x="580" y="548" on="1"/>
        <pt x="499" y="467" on="1"/>
        <pt x="535" y="415" on="0"/>
        <pt x="535" y="350" on="1"/>
        <pt x="535" y="285" on="0"/>
        <pt x="499" y="233" on="1"/>
        <pt x="580" y="152" on="1"/>
        <pt x="523" y="95" on="1"/>
        <pt x="442" y="176" on="1"/>
        <pt x="390" y="140" on="0"/>
        <pt x="325" y="140" on="1"/>
      </contour>
      <contour>
        <pt x="205" y="301" on="0"/>
        <pt x="276" y="230" on="0"/>
        <pt x="325" y="230" on="1"/>
        <pt x="375" y="230" on="0"/>
        <pt x="445" y="301" on="0"/>
        <pt x="445" y="350" on="1"/>
        <pt x="445" y="400" on="0"/>
        <pt x="375" y="470" on="0"/>
        <pt x="325" y="470" on="1"/>
        <pt x="276" y="470" on="0"/>
        <pt x="205" y="400" on="0"/>
        <pt x="205" y="350" on="1"/>
      </contour>
    </TTGlyph>
    <TTGlyph name="d" xMin="63" yMin="-16" xMax="549" yMax="848">
      <contour>
        <pt x="175" y="-16" on="0"/>
        <pt x="63" y="152" on="0"/>
        <pt x="63" y="300" on="1"/>
        <pt x="63" y="448" on="0"/>
        <pt x="175" y="616" on="0"/>
        <pt x="273" y="616" on="1"/>
        <pt x="327" y="616" on="0"/>
        <pt x="398" y="567" on="0"/>
        <pt x="409" y="522" on="1"/>
        <pt x="439" y="522" on="1"/>
        <pt x="439" y="848" on="1"/>
        <pt x="549" y="848" on="1"/>
        <pt x="549" y="0" on="1"/>
        <pt x="439" y="0" on="1"/>
        <pt x="439" y="78" on="1"/>
        <pt x="409" y="78" on="1"/>
        <pt x="398" y="33" on="0"/>
        <pt x="327" y="-16" on="0"/>
        <pt x="273" y="-16" on="1"/>
      </contour>
      <contour>
        <pt x="173" y="195" on="0"/>
        <pt x="243" y="85" on="0"/>
        <pt x="309" y="85" on="1"/>
        <pt x="375" y="85" on="0"/>
        <pt x="445" y="195" on="0"/>
        <pt x="445" y="300" on="1"/>
        <pt x="445" y="405" on="0"/>
        <pt x="375" y="515" on="0"/>
        <pt x="309" y="515" on="1"/>
        <pt x="243" y="515" on="0"/>
        <pt x="173" y="405" on="0"/>
        <pt x="173" y="300" on="1"/>
      </contour>
    </TTGlyph>
    <TTGlyph name="divide" xMin="83" yMin="87" xMax="567" yMax="613">
      <component glyphName="minus" x="0" y="0" flags="0x0"/>
      <component glyphName="uni0307" x="241" y="-235" flags="0x4"/>
      <component glyphName="uni0307" x="241" y="-605" flags="0x4"/>
    </TTGlyph>
    <TTGlyph name="divide.case" xMin="83" yMin="137" xMax="567" yMax="663">
      <component glyphName="divide" x="0" y="50" flags="0x4"/>
    </TTGlyph>
    <TTGlyph name="dollar" xMin="83" yMin="-100" xMax="593" yMax="900">
      <contour>
        <pt x="208" y="113" on="0"/>
        <pt x="295" y="97" on="1"/>
        <pt x="295" y="346" on="1"/>
        <pt x="195" y="361" on="0"/>
        <pt x="91" y="477" on="0"/>
        <pt x="91" y="574" on="1"/>
        <pt x="91" y="676" on="0"/>
        <pt x="199" y="802" on="0"/>
        <pt x="295" y="813" on="1"/>
        <pt x="295" y="900" on="1"/>
        <pt x="375" y="900" on="1"/>
        <pt x="375" y="814" on="1"/>
        <pt x="472" y="804" on="0"/>
        <pt x="585" y="682" on="0"/>
        <pt x="593" y="576" on="1"/>
        <pt x="479" y="576" on="1"/>
        <pt x="467" y="687" on="0"/>
        <pt x="375" y="703" on="1"/>
        <pt x="375" y="451" on="1"/>
        <pt x="473" y="435" on="0"/>
        <pt x="575" y="320" on="0"/>
        <pt x="575" y="224" on="1"/>
        <pt x="575" y="122" on="0"/>
        <pt x="470" y="-3" on="0"/>
        <pt x="375" y="-14" on="1"/>
        <pt x="375" y="-100" on="1"/>
        <pt x="295" y="-100" on="1"/>
        <pt x="295" y="-14" on="1"/>
        <pt x="200" y="-4" on="0"/>
        <pt x="92" y="106" on="0"/>
        <pt x="83" y="204" on="1"/>
        <pt x="198" y="204" on="1"/>
      </contour>
      <contour>
        <pt x="205" y="482" on="0"/>
        <pt x="295" y="464" on="1"/>
        <pt x="295" y="701" on="1"/>
        <pt x="251" y="690" on="0"/>
        <pt x="205" y="626" on="0"/>
        <pt x="205" y="574" on="1"/>
      </contour>
      <contour>
        <pt x="417" y="109" on="0"/>
        <pt x="461" y="172" on="0"/>
        <pt x="461" y="224" on="1"/>
        <pt x="461" y="315" on="0"/>
        <pt x="375" y="333" on="1"/>
        <pt x="375" y="98" on="1"/>
      </contour>
    </TTGlyph>
    <TTGlyph name="dollar.bold" xMin="83" yMin="-100" xMax="593" yMax="900">
      <contour>
        <pt x="210" y="94" on="0"/>
        <pt x="335" y="94" on="1"/>
        <pt x="396" y="94" on="0"/>
        <pt x="461" y="161" on="0"/>
        <pt x="461" y="224" on="1"/>
        <pt x="461" y="273" on="0"/>
        <pt x="411" y="328" on="0"/>
        <pt x="361" y="336" on="1"/>
        <pt x="296" y="346" on="1"/>
        <pt x="196" y="361" on="0"/>
        <pt x="91" y="477" on="0"/>
        <pt x="91" y="574" on="1"/>
        <pt x="91" y="676" on="0"/>
        <pt x="199" y="802" on="0"/>
        <pt x="295" y="813" on="1"/>
        <pt x="295" y="900" on="1"/>
        <pt x="375" y="900" on="1"/>
        <pt x="375" y="814" on="1"/>
        <pt x="472" y="804" on="0"/>
        <pt x="585" y="682" on="0"/>
        <pt x="593" y="576" on="1"/>
        <pt x="479" y="576" on="1"/>
        <pt x="466" y="706" on="0"/>
        <pt x="338" y="706" on="1"/>
        <pt x="274" y="706" on="0"/>
        <pt x="205" y="638" on="0"/>
        <pt x="205" y="574" on="1"/>
        <pt x="205" y="525" on="0"/>
        <pt x="255" y="470" on="0"/>
        <pt x="306" y="462" on="1"/>
        <pt x="371" y="452" on="1"/>
        <pt x="471" y="437" on="0"/>
        <pt x="575" y="321" on="0"/>
        <pt x="575" y="224" on="1"/>
        <pt x="575" y="122" on="0"/>
        <pt x="470" y="-3" on="0"/>
        <pt x="375" y="-14" on="1"/>
        <pt x="375" y="-100" on="1"/>
        <pt x="295" y="-100" on="1"/>
        <pt x="295" y="-14" on="1"/>
        <pt x="200" y="-4" on="0"/>
        <pt x="92" y="106" on="0"/>
        <pt x="83" y="204" on="1"/>
        <pt x="198" y="204" on="1"/>
      </contour>
    </TTGlyph>
    <TTGlyph name="dotlessi" xMin="135" yMin="0" xMax="572" yMax="600">
      <contour>
        <pt x="408" y="600" on="1"/>
        <pt x="408" y="103" on="1"/>
        <pt x="572" y="103" on="1"/>
        <pt x="572" y="0" on="1"/>
        <pt x="135" y="0" on="1"/>
        <pt x="135" y="103" on="1"/>
        <pt x="298" y="103" on="1"/>
        <pt x="298" y="497" on="1"/>
        <pt x="135" y="497" on="1"/>
        <pt x="135" y="600" on="1"/>
      </contour>
    </TTGlyph>
    <TTGlyph name="e" xMin="92" yMin="-16" xMax="573" yMax="616">
      <contour>
        <pt x="92" y="451" on="0"/>
        <pt x="222" y="616" on="0"/>
        <pt x="336" y="616" on="1"/>
        <pt x="444" y="616" on="0"/>
        <pt x="559" y="460" on="0"/>
        <pt x="559" y="314" on="1"/>
        <pt x="559" y="292" on="0"/>
        <pt x="557" y="264" on="1"/>
        <pt x="200" y="264" on="1"/>
        <pt x="213" y="85" on="0"/>
        <pt x="339" y="85" on="1"/>
        <pt x="437" y="85" on="0"/>
        <pt x="468" y="184" on="1"/>
        <pt x="573" y="184" on="1"/>
        <pt x="552" y="87" on="0"/>
        <pt x="431" y="-16" on="0"/>
        <pt x="339" y="-16" on="1"/>
        <pt x="220" y="-16" on="0"/>
        <pt x="92" y="149" on="0"/>
        <pt x="92" y="305" on="1"/>
      </contour>
      <contour>
        <pt x="455" y="361" on="1"/>
        <pt x="442" y="515" on="0"/>
        <pt x="336" y="515" on="1"/>
        <pt x="279" y="515" on="0"/>
        <pt x="211" y="436" on="0"/>
        <pt x="202" y="361" on="1"/>
      </contour>
    </TTGlyph>
    <TTGlyph name="eight" xMin="62" yMin="-16" xMax="588" yMax="816">
      <contour>
        <pt x="392" y="455" on="0"/>
        <pt x="470" y="522" on="0"/>
        <pt x="470" y="580" on="1"/>
        <pt x="470" y="639" on="0"/>
        <pt x="392" y="706" on="0"/>
        <pt x="325" y="706" on="1"/>
        <pt x="258" y="706" on="0"/>
        <pt x="180" y="639" on="0"/>
        <pt x="180" y="580" on="1"/>
        <pt x="180" y="522" on="0"/>
        <pt x="258" y="455" on="0"/>
        <pt x="325" y="455" on="1"/>
      </contour>
      <contour>
        <pt x="62" y="282" on="0"/>
        <pt x="134" y="375" on="0"/>
        <pt x="198" y="386" on="1"/>
        <pt x="198" y="416" on="1"/>
        <pt x="135" y="426" on="0"/>
        <pt x="64" y="519" on="0"/>
        <pt x="64" y="591" on="1"/>
        <pt x="64" y="696" on="0"/>
        <pt x="203" y="816" on="0"/>
        <pt x="325" y="816" on="1"/>
        <pt x="447" y="816" on="0"/>
        <pt x="586" y="696" on="0"/>
        <pt x="586" y="591" on="1"/>
        <pt x="586" y="519" on="0"/>
        <pt x="515" y="426" on="0"/>
        <pt x="452" y="416" on="1"/>
        <pt x="452" y="386" on="1"/>
        <pt x="516" y="375" on="0"/>
        <pt x="588" y="282" on="0"/>
        <pt x="588" y="209" on="1"/>
        <pt x="588" y="105" on="0"/>
        <pt x="447" y="-16" on="0"/>
        <pt x="325" y="-16" on="1"/>
        <pt x="203" y="-16" on="0"/>
        <pt x="62" y="105" on="0"/>
        <pt x="62" y="209" on="1"/>
      </contour>
      <contour>
        <pt x="178" y="162" on="0"/>
        <pt x="257" y="94" on="0"/>
        <pt x="325" y="94" on="1"/>
        <pt x="393" y="94" on="0"/>
        <pt x="472" y="162" on="0"/>
        <pt x="472" y="220" on="1"/>
        <pt x="472" y="279" on="0"/>
        <pt x="393" y="347" on="0"/>
        <pt x="325" y="347" on="1"/>
        <pt x="257" y="347" on="0"/>
        <pt x="178" y="279" on="0"/>
        <pt x="178" y="220" on="1"/>
      </contour>
    </TTGlyph>
    <TTGlyph name="ellipsis" xMin="43" yMin="-8" xMax="607" yMax="187">
      <contour>
        <pt x="291" y="-8" on="0"/>
        <pt x="256" y="42" on="0"/>
        <pt x="256" y="89" on="1"/>
        <pt x="256" y="137" on="0"/>
        <pt x="291" y="187" on="0"/>
        <pt x="325" y="187" on="1"/>
        <pt x="359" y="187" on="0"/>
        <pt x="395" y="137" on="0"/>
        <pt x="395" y="89" on="1"/>
        <pt x="395" y="42" on="0"/>
        <pt x="359" y="-8" on="0"/>
        <pt x="325" y="-8" on="1"/>
      </contour>
      <contour>
        <pt x="43" y="137" on="0"/>
        <pt x="78" y="187" on="0"/>
        <pt x="112" y="187" on="1"/>
        <pt x="146" y="187" on="0"/>
        <pt x="182" y="137" on="0"/>
        <pt x="182" y="89" on="1"/>
        <pt x="182" y="42" on="0"/>
        <pt x="146" y="-8" on="0"/>
        <pt x="112" y="-8" on="1"/>
        <pt x="78" y="-8" on="0"/>
        <pt x="43" y="42" on="0"/>
        <pt x="43" y="89" on="1"/>
      </contour>
      <contour>
        <pt x="468" y="137" on="0"/>
        <pt x="504" y="187" on="0"/>
        <pt x="538" y="187" on="1"/>
        <pt x="572" y="187" on="0"/>
        <pt x="607" y="137" on="0"/>
        <pt x="607" y="89" on="1"/>
        <pt x="607" y="42" on="0"/>
        <pt x="572" y="-8" on="0"/>
        <pt x="538" y="-8" on="1"/>
        <pt x="504" y="-8" on="0"/>
        <pt x="468" y="42" on="0"/>
        <pt x="468" y="89" on="1"/>
      </contour>
    </TTGlyph>
    <TTGlyph name="emdash" xMin="40" yMin="300" xMax="610" yMax="400">
      <contour>
        <pt x="610" y="400" on="1"/>
        <pt x="610" y="300" on="1"/>
        <pt x="40" y="300" on="1"/>
        <pt x="40" y="400" on="1"/>
      </contour>
    </TTGlyph>
    <TTGlyph name="emdash.case" xMin="40" yMin="350" xMax="610" yMax="450">
      <component glyphName="emdash" x="0" y="50" flags="0x4"/>
    </TTGlyph>
    <TTGlyph name="endash" xMin="67" yMin="300" xMax="583" yMax="400">
      <contour>
        <pt x="583" y="400" on="1"/>
        <pt x="583" y="300" on="1"/>
        <pt x="67" y="300" on="1"/>
        <pt x="67" y="400" on="1"/>
      </contour>
    </TTGlyph>
    <TTGlyph name="endash.case" xMin="67" yMin="350" xMax="583" yMax="450">
      <component glyphName="endash" x="0" y="50" flags="0x4"/>
    </TTGlyph>
    <TTGlyph name="equal" xMin="90" yMin="167" xMax="560" yMax="533">
      <contour>
        <pt x="90" y="533" on="1"/>
        <pt x="560" y="533" on="1"/>
        <pt x="560" y="433" on="1"/>
        <pt x="90" y="433" on="1"/>
      </contour>
      <contour>
        <pt x="90" y="267" on="1"/>
        <pt x="560" y="267" on="1"/>
        <pt x="560" y="167" on="1"/>
        <pt x="90" y="167" on="1"/>
      </contour>
    </TTGlyph>
    <TTGlyph name="equal.case" xMin="90" yMin="217" xMax="560" yMax="583">
      <component glyphName="equal" x="0" y="50" flags="0x4"/>
    </TTGlyph>
    <TTGlyph name="exclam" xMin="242" yMin="-7" xMax="409" yMax="800">
      <contour>
        <pt x="382" y="800" on="1"/>
        <pt x="382" y="230" on="1"/>
        <pt x="268" y="230" on="1"/>
        <pt x="268" y="800" on="1"/>
      </contour>
      <contour>
        <pt x="242" y="117" on="0"/>
        <pt x="285" y="159" on="0"/>
        <pt x="325" y="159" on="1"/>
        <pt x="366" y="159" on="0"/>
        <pt x="409" y="116" on="0"/>
        <pt x="409" y="76" on="1"/>
        <pt x="409" y="36" on="0"/>
        <pt x="366" y="-7" on="0"/>
        <pt x="325" y="-7" on="1"/>
        <pt x="285" y="-7" on="0"/>
        <pt x="242" y="36" on="0"/>
        <pt x="242" y="76" on="1"/>
      </contour>
    </TTGlyph>
    <TTGlyph name="f" xMin="123" yMin="0" xMax="627" yMax="864">
      <contour>
        <pt x="245" y="0" on="1"/>
        <pt x="245" y="497" on="1"/>
        <pt x="123" y="497" on="1"/>
        <pt x="123" y="600" on="1"/>
        <pt x="245" y="600" on="1"/>
        <pt x="245" y="671" on="1"/>
        <pt x="245" y="762" on="0"/>
        <pt x="345" y="864" on="0"/>
        <pt x="433" y="864" on="1"/>
        <pt x="518" y="864" on="0"/>
        <pt x="620" y="772" on="0"/>
        <pt x="627" y="690" on="1"/>
        <pt x="517" y="690" on="1"/>
        <pt x="511" y="761" on="0"/>
        <pt x="433" y="761" on="1"/>
        <pt x="395" y="761" on="0"/>
        <pt x="355" y="715" on="0"/>
        <pt x="355" y="671" on="1"/>
        <pt x="355" y="600" on="1"/>
        <pt x="555" y="600" on="1"/>
        <pt x="555" y="497" on="1"/>
        <pt x="355" y="497" on="1"/>
        <pt x="355" y="0" on="1"/>
      </contour>
    </TTGlyph>
    <TTGlyph name="five" xMin="74" yMin="-16" xMax="583" yMax="800">
      <contour>
        <pt x="569" y="800" on="1"/>
        <pt x="569" y="690" on="1"/>
        <pt x="215" y="690" on="1"/>
        <pt x="215" y="463" on="1"/>
        <pt x="245" y="463" on="1"/>
        <pt x="254" y="498" on="0"/>
        <pt x="317" y="536" on="0"/>
        <pt x="366" y="536" on="1"/>
        <pt x="472" y="536" on="0"/>
        <pt x="583" y="398" on="0"/>
        <pt x="583" y="267" on="1"/>
        <pt x="583" y="130" on="0"/>
        <pt x="454" y="-16" on="0"/>
        <pt x="332" y="-16" on="1"/>
        <pt x="218" y="-16" on="0"/>
        <pt x="84" y="116" on="0"/>
        <pt x="74" y="240" on="1"/>
        <pt x="195" y="240" on="1"/>
        <pt x="202" y="170" on="0"/>
        <pt x="273" y="94" on="0"/>
        <pt x="332" y="94" on="1"/>
        <pt x="397" y="94" on="0"/>
        <pt x="467" y="183" on="0"/>
        <pt x="467" y="267" on="1"/>
        <pt x="467" y="346" on="0"/>
        <pt x="397" y="430" on="0"/>
        <pt x="332" y="430" on="1"/>
        <pt x="288" y="430" on="0"/>
        <pt x="222" y="387" on="0"/>
        <pt x="205" y="346" on="1"/>
        <pt x="101" y="346" on="1"/>
        <pt x="101" y="800" on="1"/>
      </contour>
    </TTGlyph>
    <TTGlyph name="four" xMin="54" yMin="0" xMax="603" yMax="800">
      <contour>
        <pt x="490" y="340" on="1"/>
        <pt x="603" y="340" on="1"/>
        <pt x="603" y="230" on="1"/>
        <pt x="490" y="230" on="1"/>
        <pt x="490" y="0" on="1"/>
        <pt x="376" y="0" on="1"/>
        <pt x="376" y="230" on="1"/>
        <pt x="54" y="230" on="1"/>
        <pt x="54" y="387" on="1"/>
        <pt x="287" y="800" on="1"/>
        <pt x="490" y="800" on="1"/>
      </contour>
      <contour>
        <pt x="376" y="340" on="1"/>
        <pt x="376" y="736" on="1"/>
        <pt x="149" y="340" on="1"/>
      </contour>
    </TTGlyph>
    <TTGlyph name="g" xMin="71" yMin="-216" xMax="543" yMax="616">
      <contour>
        <pt x="543" y="-95" on="0"/>
        <pt x="420" y="-216" on="0"/>
        <pt x="310" y="-216" on="1"/>
        <pt x="204" y="-216" on="0"/>
        <pt x="78" y="-116" on="0"/>
        <pt x="71" y="-27" on="1"/>
        <pt x="188" y="-27" on="1"/>
        <pt x="193" y="-68" on="0"/>
        <pt x="256" y="-113" on="0"/>
        <pt x="310" y="-113" on="1"/>
        <pt x="369" y="-113" on="0"/>
        <pt x="433" y="-48" on="0"/>
        <pt x="433" y="13" on="1"/>
        <pt x="433" y="120" on="1"/>
        <pt x="403" y="120" on="1"/>
        <pt x="393" y="77" on="0"/>
        <pt x="326" y="32" on="0"/>
        <pt x="274" y="32" on="1"/>
        <pt x="180" y="32" on="0"/>
        <pt x="73" y="187" on="0"/>
        <pt x="73" y="324" on="1"/>
        <pt x="73" y="461" on="0"/>
        <pt x="180" y="616" on="0"/>
        <pt x="274" y="616" on="1"/>
        <pt x="326" y="616" on="0"/>
        <pt x="393" y="571" on="0"/>
        <pt x="403" y="528" on="1"/>
        <pt x="433" y="528" on="1"/>
        <pt x="433" y="600" on="1"/>
        <pt x="543" y="600" on="1"/>
        <pt x="543" y="13" on="1"/>
      </contour>
      <contour>
        <pt x="184" y="233" on="0"/>
        <pt x="251" y="133" on="0"/>
        <pt x="312" y="133" on="1"/>
        <pt x="374" y="133" on="0"/>
        <pt x="440" y="231" on="0"/>
        <pt x="440" y="324" on="1"/>
        <pt x="440" y="417" on="0"/>
        <pt x="374" y="515" on="0"/>
        <pt x="312" y="515" on="1"/>
        <pt x="251" y="515" on="0"/>
        <pt x="184" y="415" on="0"/>
        <pt x="184" y="324" on="1"/>
      </contour>
    </TTGlyph>
    <TTGlyph name="grave" xMin="163" yMin="572" xMax="487" yMax="848">
      <contour>
        <pt x="307" y="848" on="1"/>
        <pt x="487" y="572" on="1"/>
        <pt x="383" y="572" on="1"/>
        <pt x="163" y="848" on="1"/>
      </contour>
    </TTGlyph>
    <TTGlyph name="greater" xMin="107" yMin="42" xMax="543" yMax="658">
      <contour>
        <pt x="107" y="42" on="1"/>
        <pt x="107" y="157" on="1"/>
        <pt x="470" y="345" on="1"/>
        <pt x="470" y="355" on="1"/>
        <pt x="107" y="543" on="1"/>
        <pt x="107" y="658" on="1"/>
        <pt x="543" y="426" on="1"/>
        <pt x="543" y="274" on="1"/>
      </contour>
    </TTGlyph>
    <TTGlyph name="greater.case" xMin="107" yMin="92" xMax="543" yMax="708">
      <component glyphName="greater" x="0" y="50" flags="0x4"/>
    </TTGlyph>
    <TTGlyph name="guillemotleft" xMin="86" yMin="39" xMax="543" yMax="661">
      <contour>
        <pt x="86" y="272" on="1"/>
        <pt x="86" y="426" on="1"/>
        <pt x="339" y="661" on="1"/>
        <pt x="339" y="522" on="1"/>
        <pt x="149" y="351" on="1"/>
        <pt x="339" y="182" on="1"/>
        <pt x="339" y="39" on="1"/>
      </contour>
      <contour>
        <pt x="329" y="423" on="1"/>
        <pt x="543" y="598" on="1"/>
        <pt x="543" y="469" on="1"/>
        <pt x="393" y="351" on="1"/>
        <pt x="543" y="235" on="1"/>
        <pt x="543" y="102" on="1"/>
        <pt x="329" y="275" on="1"/>
      </contour>
    </TTGlyph>
    <TTGlyph name="guillemotright" xMin="107" yMin="39" xMax="564" yMax="661">
      <contour>
        <pt x="311" y="182" on="1"/>
        <pt x="501" y="351" on="1"/>
        <pt x="311" y="522" on="1"/>
        <pt x="311" y="661" on="1"/>
        <pt x="564" y="426" on="1"/>
        <pt x="564" y="272" on="1"/>
        <pt x="311" y="39" on="1"/>
      </contour>
      <contour>
        <pt x="107" y="235" on="1"/>
        <pt x="257" y="351" on="1"/>
        <pt x="107" y="469" on="1"/>
        <pt x="107" y="598" on="1"/>
        <pt x="321" y="423" on="1"/>
        <pt x="321" y="275" on="1"/>
        <pt x="107" y="102" on="1"/>
      </contour>
    </TTGlyph>
    <TTGlyph name="h" xMin="107" yMin="0" xMax="554" yMax="848">
      <contour>
        <pt x="217" y="848" on="1"/>
        <pt x="217" y="523" on="1"/>
        <pt x="247" y="523" on="1"/>
        <pt x="258" y="567" on="0"/>
        <pt x="329" y="616" on="0"/>
        <pt x="383" y="616" on="1"/>
        <pt x="462" y="616" on="0"/>
        <pt x="554" y="501" on="0"/>
        <pt x="554" y="403" on="1"/>
        <pt x="554" y="0" on="1"/>
        <pt x="444" y="0" on="1"/>
        <pt x="444" y="373" on="1"/>
        <pt x="444" y="513" on="0"/>
        <pt x="331" y="513" on="1"/>
        <pt x="217" y="513" on="0"/>
        <pt x="217" y="373" on="1"/>
        <pt x="217" y="0" on="1"/>
        <pt x="107" y="0" on="1"/>
        <pt x="107" y="848" on="1"/>
      </contour>
    </TTGlyph>
    <TTGlyph name="hyphen" xMin="83" yMin="300" xMax="567" yMax="400">
      <component glyphName="minus" x="0" y="0" flags="0x0"/>
    </TTGlyph>
    <TTGlyph name="hyphen.case" xMin="83" yMin="350" xMax="567" yMax="450">
      <component glyphName="minus.case" x="0" y="0" flags="0x0"/>
    </TTGlyph>
    <TTGlyph name="i" xMin="135" yMin="0" xMax="572" yMax="848">
      <component glyphName="dotlessi" x="0" y="0" flags="0x0"/>
      <component glyphName="uni0307" x="269" y="0" flags="0x0"/>
    </TTGlyph>
    <TTGlyph name="j" xMin="86" yMin="-216" xMax="499" yMax="848">
      <component glyphName="uni0237" x="0" y="0" flags="0x0"/>
      <component glyphName="uni0307" x="331" y="0" flags="0x0"/>
    </TTGlyph>
    <TTGlyph name="k" xMin="131" yMin="0" xMax="615" yMax="848">
      <contour>
        <pt x="241" y="848" on="1"/>
        <pt x="241" y="326" on="1"/>
        <pt x="482" y="600" on="1"/>
        <pt x="615" y="600" on="1"/>
        <pt x="344" y="297" on="1"/>
        <pt x="606" y="0" on="1"/>
        <pt x="467" y="0" on="1"/>
        <pt x="241" y="258" on="1"/>
        <pt x="241" y="0" on="1"/>
        <pt x="131" y="0" on="1"/>
        <pt x="131" y="848" on="1"/>
      </contour>
    </TTGlyph>
    <TTGlyph name="l" xMin="120" yMin="0" xMax="557" yMax="848">
      <contour>
        <pt x="393" y="848" on="1"/>
        <pt x="393" y="103" on="1"/>
        <pt x="557" y="103" on="1"/>
        <pt x="557" y="0" on="1"/>
        <pt x="120" y="0" on="1"/>
        <pt x="120" y="103" on="1"/>
        <pt x="283" y="103" on="1"/>
        <pt x="283" y="745" on="1"/>
        <pt x="120" y="745" on="1"/>
        <pt x="120" y="848" on="1"/>
      </contour>
    </TTGlyph>
    <TTGlyph name="less" xMin="107" yMin="42" xMax="543" yMax="658">
      <contour>
        <pt x="543" y="658" on="1"/>
        <pt x="543" y="543" on="1"/>
        <pt x="180" y="355" on="1"/>
        <pt x="180" y="345" on="1"/>
        <pt x="543" y="157" on="1"/>
        <pt x="543" y="42" on="1"/>
        <pt x="107" y="274" on="1"/>
        <pt x="107" y="426" on="1"/>
      </contour>
    </TTGlyph>
    <TTGlyph name="less.case" xMin="107" yMin="92" xMax="543" yMax="708">
      <contour>
        <pt x="543" y="708" on="1"/>
        <pt x="543" y="593" on="1"/>
        <pt x="180" y="405" on="1"/>
        <pt x="180" y="395" on="1"/>
        <pt x="543" y="207" on="1"/>
        <pt x="543" y="92" on="1"/>
        <pt x="107" y="324" on="1"/>
        <pt x="107" y="476" on="1"/>
      </contour>
    </TTGlyph>
    <TTGlyph name="m" xMin="71" yMin="0" xMax="583" yMax="616">
      <contour>
        <pt x="181" y="600" on="1"/>
        <pt x="181" y="540" on="1"/>
        <pt x="213" y="540" on="1"/>
        <pt x="219" y="577" on="0"/>
        <pt x="259" y="616" on="0"/>
        <pt x="291" y="616" on="1"/>
        <pt x="353" y="616" on="0"/>
        <pt x="373" y="540" on="1"/>
        <pt x="400" y="540" on="1"/>
        <pt x="406" y="577" on="0"/>
        <pt x="451" y="616" on="0"/>
        <pt x="488" y="616" on="1"/>
        <pt x="535" y="616" on="0"/>
        <pt x="583" y="539" on="0"/>
        <pt x="583" y="466" on="1"/>
        <pt x="583" y="0" on="1"/>
        <pt x="473" y="0" on="1"/>
        <pt x="473" y="443" on="1"/>
        <pt x="473" y="508" on="0"/>
        <pt x="427" y="508" on="1"/>
        <pt x="404" y="508" on="0"/>
        <pt x="382" y="476" on="0"/>
        <pt x="382" y="443" on="1"/>
        <pt x="382" y="0" on="1"/>
        <pt x="272" y="0" on="1"/>
        <pt x="272" y="443" on="1"/>
        <pt x="272" y="476" on="0"/>
        <pt x="250" y="508" on="0"/>
        <pt x="227" y="508" on="1"/>
        <pt x="181" y="508" on="0"/>
        <pt x="181" y="443" on="1"/>
        <pt x="181" y="0" on="1"/>
        <pt x="71" y="0" on="1"/>
        <pt x="71" y="600" on="1"/>
      </contour>
    </TTGlyph>
    <TTGlyph name="minus" xMin="83" yMin="300" xMax="567" yMax="400">
      <contour>
        <pt x="83" y="400" on="1"/>
        <pt x="567" y="400" on="1"/>
        <pt x="567" y="300" on="1"/>
        <pt x="83" y="300" on="1"/>
      </contour>
    </TTGlyph>
    <TTGlyph name="minus.case" xMin="83" yMin="350" xMax="567" yMax="450">
      <component glyphName="minus" x="0" y="50" flags="0x4"/>
    </TTGlyph>
    <TTGlyph name="multiply" xMin="104" yMin="129" xMax="546" yMax="571">
      <contour>
        <pt x="325" y="285" on="1"/>
        <pt x="169" y="129" on="1"/>
        <pt x="104" y="194" on="1"/>
        <pt x="260" y="350" on="1"/>
        <pt x="104" y="506" on="1"/>
        <pt x="169" y="571" on="1"/>
        <pt x="325" y="415" on="1"/>
        <pt x="481" y="571" on="1"/>
        <pt x="546" y="506" on="1"/>
        <pt x="390" y="350" on="1"/>
        <pt x="546" y="194" on="1"/>
        <pt x="481" y="129" on="1"/>
      </contour>
    </TTGlyph>
    <TTGlyph name="multiply.case" xMin="104" yMin="179" xMax="546" yMax="621">
      <component glyphName="multiply" x="0" y="50" flags="0x4"/>
    </TTGlyph>
    <TTGlyph name="n" xMin="107" yMin="0" xMax="554" yMax="616">
      <contour>
        <pt x="217" y="600" on="1"/>
        <pt x="217" y="523" on="1"/>
        <pt x="247" y="523" on="1"/>
        <pt x="257" y="566" on="0"/>
        <pt x="329" y="616" on="0"/>
        <pt x="382" y="616" on="1"/>
        <pt x="461" y="616" on="0"/>
        <pt x="554" y="501" on="0"/>
        <pt x="554" y="403" on="1"/>
        <pt x="554" y="0" on="1"/>
        <pt x="444" y="0" on="1"/>
        <pt x="444" y="373" on="1"/>
        <pt x="444" y="513" on="0"/>
        <pt x="330" y="513" on="1"/>
        <pt x="217" y="513" on="0"/>
        <pt x="217" y="373" on="1"/>
        <pt x="217" y="0" on="1"/>
        <pt x="107" y="0" on="1"/>
        <pt x="107" y="600" on="1"/>
      </contour>
    </TTGlyph>
    <TTGlyph name="nine" xMin="67" yMin="0" xMax="583" yMax="816">
      <contour>
        <pt x="404" y="816" on="0"/>
        <pt x="520" y="750" on="0"/>
        <pt x="583" y="627" on="0"/>
        <pt x="583" y="544" on="1"/>
        <pt x="583" y="431" on="0"/>
        <pt x="514" y="319" on="1"/>
        <pt x="322" y="0" on="1"/>
        <pt x="189" y="0" on="1"/>
        <pt x="379" y="303" on="1"/>
        <pt x="356" y="319" on="1"/>
        <pt x="344" y="307" on="0"/>
        <pt x="301" y="293" on="0"/>
        <pt x="276" y="293" on="1"/>
        <pt x="216" y="293" on="0"/>
        <pt x="121" y="358" on="0"/>
        <pt x="67" y="472" on="0"/>
        <pt x="67" y="544" on="1"/>
        <pt x="67" y="627" on="0"/>
        <pt x="130" y="750" on="0"/>
        <pt x="247" y="816" on="0"/>
        <pt x="326" y="816" on="1"/>
      </contour>
      <contour>
        <pt x="183" y="470" on="0"/>
        <pt x="260" y="382" on="0"/>
        <pt x="325" y="382" on="1"/>
        <pt x="390" y="382" on="0"/>
        <pt x="467" y="470" on="0"/>
        <pt x="467" y="544" on="1"/>
        <pt x="467" y="618" on="0"/>
        <pt x="390" y="706" on="0"/>
        <pt x="325" y="706" on="1"/>
        <pt x="260" y="706" on="0"/>
        <pt x="183" y="618" on="0"/>
        <pt x="183" y="544" on="1"/>
      </contour>
    </TTGlyph>
    <TTGlyph name="notequal" xMin="90" yMin="10" xMax="560" yMax="690">
      <contour>
        <pt x="90" y="533" on="1"/>
        <pt x="360" y="533" on="1"/>
        <pt x="433" y="690" on="1"/>
        <pt x="535" y="690" on="1"/>
        <pt x="462" y="533" on="1"/>
        <pt x="560" y="533" on="1"/>
        <pt x="560" y="433" on="1"/>
        <pt x="415" y="433" on="1"/>
        <pt x="337" y="267" on="1"/>
        <pt x="560" y="267" on="1"/>
        <pt x="560" y="167" on="1"/>
        <pt x="290" y="167" on="1"/>
        <pt x="217" y="10" on="1"/>
        <pt x="115" y="10" on="1"/>
        <pt x="188" y="167" on="1"/>
        <pt x="90" y="167" on="1"/>
        <pt x="90" y="267" on="1"/>
        <pt x="235" y="267" on="1"/>
        <pt x="313" y="433" on="1"/>
        <pt x="90" y="433" on="1"/>
      </contour>
    </TTGlyph>
    <TTGlyph name="notequal.case" xMin="90" yMin="60" xMax="560" yMax="740">
      <component glyphName="notequal" x="0" y="50" flags="0x4"/>
    </TTGlyph>
    <TTGlyph name="numbersign" xMin="44" yMin="0" xMax="606" yMax="800">
      <contour>
        <pt x="308" y="600" on="1"/>
        <pt x="421" y="600" on="1"/>
        <pt x="460" y="800" on="1"/>
        <pt x="550" y="800" on="1"/>
        <pt x="511" y="600" on="1"/>
        <pt x="606" y="600" on="1"/>
        <pt x="606" y="504" on="1"/>
        <pt x="492" y="504" on="1"/>
        <pt x="451" y="296" on="1"/>
        <pt x="552" y="296" on="1"/>
        <pt x="552" y="200" on="1"/>
        <pt x="432" y="200" on="1"/>
        <pt x="393" y="0" on="1"/>
        <pt x="303" y="0" on="1"/>
        <pt x="342" y="200" on="1"/>
        <pt x="229" y="200" on="1"/>
        <pt x="190" y="0" on="1"/>
        <pt x="100" y="0" on="1"/>
        <pt x="139" y="200" on="1"/>
        <pt x="44" y="200" on="1"/>
        <pt x="44" y="296" on="1"/>
        <pt x="158" y="296" on="1"/>
        <pt x="199" y="504" on="1"/>
        <pt x="98" y="504" on="1"/>
        <pt x="98" y="600" on="1"/>
        <pt x="218" y="600" on="1"/>
        <pt x="257" y="800" on="1"/>
        <pt x="347" y="800" on="1"/>
      </contour>
      <contour>
        <pt x="361" y="296" on="1"/>
        <pt x="402" y="504" on="1"/>
        <pt x="289" y="504" on="1"/>
        <pt x="248" y="296" on="1"/>
      </contour>
    </TTGlyph>
    <TTGlyph name="o" xMin="76" yMin="-16" xMax="574" yMax="616">
      <contour>
        <pt x="208" y="-16" on="0"/>
        <pt x="76" y="152" on="0"/>
        <pt x="76" y="301" on="1"/>
        <pt x="76" y="449" on="0"/>
        <pt x="208" y="616" on="0"/>
        <pt x="325" y="616" on="1"/>
        <pt x="442" y="616" on="0"/>
        <pt x="574" y="449" on="0"/>
        <pt x="574" y="301" on="1"/>
        <pt x="574" y="152" on="0"/>
        <pt x="442" y="-16" on="0"/>
        <pt x="325" y="-16" on="1"/>
      </contour>
      <contour>
        <pt x="185" y="197" on="0"/>
        <pt x="257" y="87" on="0"/>
        <pt x="325" y="87" on="1"/>
        <pt x="393" y="87" on="0"/>
        <pt x="465" y="197" on="0"/>
        <pt x="465" y="301" on="1"/>
        <pt x="465" y="404" on="0"/>
        <pt x="393" y="513" on="0"/>
        <pt x="325" y="513" on="1"/>
        <pt x="257" y="513" on="0"/>
        <pt x="185" y="404" on="0"/>
        <pt x="185" y="301" on="1"/>
      </contour>
    </TTGlyph>
    <TTGlyph name="one" xMin="97" yMin="0" xMax="600" yMax="800">
      <contour>
        <pt x="414" y="104" on="1"/>
        <pt x="600" y="104" on="1"/>
        <pt x="600" y="0" on="1"/>
        <pt x="97" y="0" on="1"/>
        <pt x="97" y="104" on="1"/>
        <pt x="300" y="104" on="1"/>
        <pt x="300" y="701" on="1"/>
        <pt x="97" y="560" on="1"/>
        <pt x="97" y="695" on="1"/>
        <pt x="261" y="800" on="1"/>
        <pt x="414" y="800" on="1"/>
      </contour>
    </TTGlyph>
    <TTGlyph name="p" xMin="101" yMin="-200" xMax="587" yMax="616">
      <contour>
        <pt x="475" y="616" on="0"/>
        <pt x="587" y="448" on="0"/>
        <pt x="587" y="300" on="1"/>
        <pt x="587" y="152" on="0"/>
        <pt x="475" y="-16" on="0"/>
        <pt x="377" y="-16" on="1"/>
        <pt x="323" y="-16" on="0"/>
        <pt x="252" y="33" on="0"/>
        <pt x="241" y="78" on="1"/>
        <pt x="211" y="78" on="1"/>
        <pt x="211" y="-200" on="1"/>
        <pt x="101" y="-200" on="1"/>
        <pt x="101" y="600" on="1"/>
        <pt x="211" y="600" on="1"/>
        <pt x="211" y="522" on="1"/>
        <pt x="241" y="522" on="1"/>
        <pt x="252" y="567" on="0"/>
        <pt x="323" y="616" on="0"/>
        <pt x="377" y="616" on="1"/>
      </contour>
      <contour>
        <pt x="205" y="195" on="0"/>
        <pt x="275" y="85" on="0"/>
        <pt x="341" y="85" on="1"/>
        <pt x="407" y="85" on="0"/>
        <pt x="477" y="195" on="0"/>
        <pt x="477" y="300" on="1"/>
        <pt x="477" y="405" on="0"/>
        <pt x="407" y="515" on="0"/>
        <pt x="341" y="515" on="1"/>
        <pt x="275" y="515" on="0"/>
        <pt x="205" y="405" on="0"/>
        <pt x="205" y="300" on="1"/>
      </contour>
    </TTGlyph>
    <TTGlyph name="parenleft" xMin="225" yMin="-160" xMax="519" yMax="920">
      <contour>
        <pt x="431" y="766" on="0"/>
        <pt x="335" y="538" on="0"/>
        <pt x="335" y="380" on="1"/>
        <pt x="335" y="222" on="0"/>
        <pt x="431" y="-6" on="0"/>
        <pt x="519" y="-60" on="1"/>
        <pt x="519" y="-160" on="1"/>
        <pt x="428" y="-116" on="0"/>
        <pt x="296" y="44" on="0"/>
        <pt x="225" y="258" on="0"/>
        <pt x="225" y="380" on="1"/>
        <pt x="225" y="502" on="0"/>
        <pt x="296" y="716" on="0"/>
        <pt x="428" y="876" on="0"/>
        <pt x="519" y="920" on="1"/>
        <pt x="519" y="820" on="1"/>
      </contour>
    </TTGlyph>
    <TTGlyph name="parenright" xMin="131" yMin="-160" xMax="425" yMax="920">
      <contour>
        <pt x="222" y="876" on="0"/>
        <pt x="354" y="716" on="0"/>
        <pt x="425" y="502" on="0"/>
        <pt x="425" y="380" on="1"/>
        <pt x="425" y="258" on="0"/>
        <pt x="354" y="44" on="0"/>
        <pt x="222" y="-116" on="0"/>
        <pt x="131" y="-160" on="1"/>
        <pt x="131" y="-60" on="1"/>
        <pt x="219" y="-6" on="0"/>
        <pt x="315" y="222" on="0"/>
        <pt x="315" y="380" on="1"/>
        <pt x="315" y="538" on="0"/>
        <pt x="219" y="766" on="0"/>
        <pt x="131" y="820" on="1"/>
        <pt x="131" y="920" on="1"/>
      </contour>
    </TTGlyph>
    <TTGlyph name="percent" xMin="40" yMin="-16" xMax="610" yMax="816">
      <contour>
        <pt x="40" y="248" on="1"/>
        <pt x="610" y="650" on="1"/>
        <pt x="610" y="552" on="1"/>
        <pt x="40" y="150" on="1"/>
      </contour>
      <contour>
        <pt x="57" y="728" on="0"/>
        <pt x="129" y="816" on="0"/>
        <pt x="198" y="816" on="1"/>
        <pt x="266" y="816" on="0"/>
        <pt x="339" y="728" on="0"/>
        <pt x="339" y="643" on="1"/>
        <pt x="339" y="558" on="0"/>
        <pt x="266" y="470" on="0"/>
        <pt x="198" y="470" on="1"/>
        <pt x="129" y="470" on="0"/>
        <pt x="57" y="558" on="0"/>
        <pt x="57" y="643" on="1"/>
      </contour>
      <contour>
        <pt x="155" y="566" on="0"/>
        <pt x="198" y="566" on="1"/>
        <pt x="241" y="566" on="0"/>
        <pt x="241" y="643" on="1"/>
        <pt x="241" y="720" on="0"/>
        <pt x="198" y="720" on="1"/>
        <pt x="155" y="720" on="0"/>
        <pt x="155" y="643" on="1"/>
      </contour>
      <contour>
        <pt x="311" y="242" on="0"/>
        <pt x="384" y="330" on="0"/>
        <pt x="452" y="330" on="1"/>
        <pt x="521" y="330" on="0"/>
        <pt x="593" y="242" on="0"/>
        <pt x="593" y="157" on="1"/>
        <pt x="593" y="72" on="0"/>
        <pt x="521" y="-16" on="0"/>
        <pt x="452" y="-16" on="1"/>
        <pt x="384" y="-16" on="0"/>
        <pt x="311" y="72" on="0"/>
        <pt x="311" y="157" on="1"/>
      </contour>
      <contour>
        <pt x="409" y="80" on="0"/>
        <pt x="452" y="80" on="1"/>
        <pt x="495" y="80" on="0"/>
        <pt x="495" y="157" on="1"/>
        <pt x="495" y="234" on="0"/>
        <pt x="452" y="234" on="1"/>
        <pt x="409" y="234" on="0"/>
        <pt x="409" y="157" on="1"/>
      </contour>
    </TTGlyph>
    <TTGlyph name="percent.cv01" xMin="57" yMin="-16" xMax="593" yMax="816">
      <contour>
        <pt x="380" y="-16" on="0"/>
        <pt x="311" y="87" on="0"/>
        <pt x="311" y="195" on="1"/>
        <pt x="311" y="300" on="0"/>
        <pt x="380" y="400" on="0"/>
        <pt x="452" y="400" on="1"/>
        <pt x="525" y="400" on="0"/>
        <pt x="593" y="301" on="0"/>
        <pt x="593" y="195" on="1"/>
        <pt x="593" y="86" on="0"/>
        <pt x="525" y="-16" on="0"/>
        <pt x="452" y="-16" on="1"/>
      </contour>
      <contour>
        <pt x="57" y="714" on="0"/>
        <pt x="125" y="816" on="0"/>
        <pt x="198" y="816" on="1"/>
        <pt x="270" y="816" on="0"/>
        <pt x="339" y="713" on="0"/>
        <pt x="339" y="605" on="1"/>
        <pt x="339" y="500" on="0"/>
        <pt x="270" y="400" on="0"/>
        <pt x="198" y="400" on="1"/>
        <pt x="125" y="400" on="0"/>
        <pt x="57" y="499" on="0"/>
        <pt x="57" y="605" on="1"/>
      </contour>
      <contour>
        <pt x="204" y="340" on="1"/>
        <pt x="287" y="340" on="1"/>
        <pt x="174" y="0" on="1"/>
        <pt x="87" y="0" on="1"/>
      </contour>
      <contour>
        <pt x="155" y="549" on="0"/>
        <pt x="176" y="496" on="0"/>
        <pt x="198" y="496" on="1"/>
        <pt x="220" y="496" on="0"/>
        <pt x="241" y="549" on="0"/>
        <pt x="241" y="605" on="1"/>
        <pt x="241" y="664" on="0"/>
        <pt x="220" y="720" on="0"/>
        <pt x="198" y="720" on="1"/>
        <pt x="176" y="720" on="0"/>
        <pt x="155" y="664" on="0"/>
        <pt x="155" y="605" on="1"/>
      </contour>
      <contour>
        <pt x="476" y="800" on="1"/>
        <pt x="563" y="800" on="1"/>
        <pt x="446" y="460" on="1"/>
        <pt x="363" y="460" on="1"/>
      </contour>
      <contour>
        <pt x="409" y="136" on="0"/>
        <pt x="430" y="80" on="0"/>
        <pt x="452" y="80" on="1"/>
        <pt x="474" y="80" on="0"/>
        <pt x="495" y="136" on="0"/>
        <pt x="495" y="195" on="1"/>
        <pt x="495" y="251" on="0"/>
        <pt x="474" y="304" on="0"/>
        <pt x="452" y="304" on="1"/>
        <pt x="430" y="304" on="0"/>
        <pt x="409" y="251" on="0"/>
        <pt x="409" y="195" on="1"/>
      </contour>
    </TTGlyph>
    <TTGlyph name="percent.cv02" xMin="57" yMin="-17" xMax="593" yMax="817">
      <contour>
        <pt x="384" y="-16" on="0"/>
        <pt x="311" y="72" on="0"/>
        <pt x="311" y="157" on="1"/>
        <pt x="311" y="242" on="0"/>
        <pt x="384" y="330" on="0"/>
        <pt x="452" y="330" on="1"/>
        <pt x="521" y="330" on="0"/>
        <pt x="593" y="242" on="0"/>
        <pt x="593" y="157" on="1"/>
        <pt x="593" y="72" on="0"/>
        <pt x="521" y="-16" on="0"/>
        <pt x="452" y="-16" on="1"/>
      </contour>
      <contour>
        <pt x="57" y="728" on="0"/>
        <pt x="129" y="816" on="0"/>
        <pt x="198" y="816" on="1"/>
        <pt x="266" y="816" on="0"/>
        <pt x="339" y="728" on="0"/>
        <pt x="339" y="643" on="1"/>
        <pt x="339" y="558" on="0"/>
        <pt x="266" y="470" on="0"/>
        <pt x="198" y="470" on="1"/>
        <pt x="129" y="470" on="0"/>
        <pt x="57" y="558" on="0"/>
        <pt x="57" y="643" on="1"/>
      </contour>
      <contour>
        <pt x="90" y="117" on="1"/>
        <pt x="560" y="817" on="1"/>
        <pt x="560" y="683" on="1"/>
        <pt x="90" y="-17" on="1"/>
      </contour>
      <contour>
        <pt x="155" y="566" on="0"/>
        <pt x="198" y="566" on="1"/>
        <pt x="241" y="566" on="0"/>
        <pt x="241" y="643" on="1"/>
        <pt x="241" y="720" on="0"/>
        <pt x="198" y="720" on="1"/>
        <pt x="155" y="720" on="0"/>
        <pt x="155" y="643" on="1"/>
      </contour>
      <contour>
        <pt x="409" y="80" on="0"/>
        <pt x="452" y="80" on="1"/>
        <pt x="495" y="80" on="0"/>
        <pt x="495" y="157" on="1"/>
        <pt x="495" y="234" on="0"/>
        <pt x="452" y="234" on="1"/>
        <pt x="409" y="234" on="0"/>
        <pt x="409" y="157" on="1"/>
      </contour>
    </TTGlyph>
    <TTGlyph name="period" xMin="239" yMin="-8" xMax="411" yMax="187">
      <contour>
        <pt x="283" y="-8" on="0"/>
        <pt x="239" y="42" on="0"/>
        <pt x="239" y="89" on="1"/>
        <pt x="239" y="137" on="0"/>
        <pt x="283" y="187" on="0"/>
        <pt x="325" y="187" on="1"/>
        <pt x="367" y="187" on="0"/>
        <pt x="411" y="137" on="0"/>
        <pt x="411" y="89" on="1"/>
        <pt x="411" y="42" on="0"/>
        <pt x="367" y="-8" on="0"/>
        <pt x="325" y="-8" on="1"/>
      </contour>
    </TTGlyph>
    <TTGlyph name="plus" xMin="83" yMin="108" xMax="567" yMax="592">
      <contour>
        <pt x="83" y="400" on="1"/>
        <pt x="275" y="400" on="1"/>
        <pt x="275" y="592" on="1"/>
        <pt x="375" y="592" on="1"/>
        <pt x="375" y="400" on="1"/>
        <pt x="567" y="400" on="1"/>
        <pt x="567" y="300" on="1"/>
        <pt x="375" y="300" on="1"/>
        <pt x="375" y="108" on="1"/>
        <pt x="275" y="108" on="1"/>
        <pt x="275" y="300" on="1"/>
        <pt x="83" y="300" on="1"/>
      </contour>
    </TTGlyph>
    <TTGlyph name="plus.case" xMin="83" yMin="158" xMax="567" yMax="642">
      <component glyphName="plus" x="0" y="50" flags="0x4"/>
    </TTGlyph>
    <TTGlyph name="q" xMin="63" yMin="-200" xMax="549" yMax="616">
      <contour>
        <pt x="327" y="616" on="0"/>
        <pt x="398" y="567" on="0"/>
        <pt x="409" y="522" on="1"/>
        <pt x="439" y="522" on="1"/>
        <pt x="439" y="600" on="1"/>
        <pt x="549" y="600" on="1"/>
        <pt x="549" y="-200" on="1"/>
        <pt x="439" y="-200" on="1"/>
        <pt x="439" y="78" on="1"/>
        <pt x="409" y="78" on="1"/>
        <pt x="398" y="33" on="0"/>
        <pt x="327" y="-16" on="0"/>
        <pt x="273" y="-16" on="1"/>
        <pt x="175" y="-16" on="0"/>
        <pt x="63" y="152" on="0"/>
        <pt x="63" y="300" on="1"/>
        <pt x="63" y="448" on="0"/>
        <pt x="175" y="616" on="0"/>
        <pt x="273" y="616" on="1"/>
      </contour>
      <contour>
        <pt x="173" y="195" on="0"/>
        <pt x="243" y="85" on="0"/>
        <pt x="309" y="85" on="1"/>
        <pt x="375" y="85" on="0"/>
        <pt x="445" y="195" on="0"/>
        <pt x="445" y="300" on="1"/>
        <pt x="445" y="405" on="0"/>
        <pt x="375" y="515" on="0"/>
        <pt x="309" y="515" on="1"/>
        <pt x="243" y="515" on="0"/>
        <pt x="173" y="405" on="0"/>
        <pt x="173" y="300" on="1"/>
      </contour>
    </TTGlyph>
    <TTGlyph name="question" xMin="68" yMin="-7" xMax="571" yMax="816">
      <contour>
        <pt x="248" y="287" on="0"/>
        <pt x="279" y="367" on="0"/>
        <pt x="326" y="419" on="0"/>
        <pt x="363" y="449" on="1"/>
        <pt x="394" y="475" on="0"/>
        <pt x="431" y="513" on="0"/>
        <pt x="455" y="567" on="0"/>
        <pt x="455" y="603" on="1"/>
        <pt x="455" y="651" on="0"/>
        <pt x="389" y="706" on="0"/>
        <pt x="331" y="706" on="1"/>
        <pt x="268" y="706" on="0"/>
        <pt x="194" y="638" on="0"/>
        <pt x="189" y="576" on="1"/>
        <pt x="68" y="576" on="1"/>
        <pt x="81" y="691" on="0"/>
        <pt x="218" y="816" on="0"/>
        <pt x="331" y="816" on="1"/>
        <pt x="443" y="816" on="0"/>
        <pt x="571" y="702" on="0"/>
        <pt x="571" y="603" on="1"/>
        <pt x="571" y="550" on="0"/>
        <pt x="539" y="474" on="0"/>
        <pt x="493" y="423" on="0"/>
        <pt x="456" y="391" on="1"/>
        <pt x="423" y="362" on="0"/>
        <pt x="386" y="323" on="0"/>
        <pt x="362" y="267" on="0"/>
        <pt x="362" y="230" on="1"/>
        <pt x="248" y="230" on="1"/>
      </contour>
      <contour>
        <pt x="225" y="117" on="0"/>
        <pt x="268" y="159" on="0"/>
        <pt x="308" y="159" on="1"/>
        <pt x="349" y="159" on="0"/>
        <pt x="392" y="116" on="0"/>
        <pt x="392" y="76" on="1"/>
        <pt x="392" y="36" on="0"/>
        <pt x="349" y="-7" on="0"/>
        <pt x="308" y="-7" on="1"/>
        <pt x="268" y="-7" on="0"/>
        <pt x="225" y="36" on="0"/>
        <pt x="225" y="76" on="1"/>
      </contour>
    </TTGlyph>
    <TTGlyph name="quotedbl" xMin="156" yMin="458" xMax="494" yMax="848">
      <component glyphName="quotesingle" x="-108" y="0" flags="0x0"/>
      <component glyphName="quotesingle" x="108" y="0" flags="0x0"/>
    </TTGlyph>
    <TTGlyph name="quotedblbase" xMin="91" yMin="-180" xMax="530" yMax="187">
      <component glyphName="comma" x="-138" y="0" flags="0x0"/>
      <component glyphName="comma" x="109" y="0" flags="0x0"/>
    </TTGlyph>
    <TTGlyph name="quotedblleft" xMin="120" yMin="469" xMax="559" yMax="836">
      <contour>
        <pt x="505" y="664" on="0"/>
        <pt x="549" y="614" on="0"/>
        <pt x="549" y="567" on="1"/>
        <pt x="549" y="519" on="0"/>
        <pt x="505" y="469" on="0"/>
        <pt x="463" y="469" on="1"/>
        <pt x="414" y="469" on="0"/>
        <pt x="367" y="529" on="0"/>
        <pt x="367" y="590" on="1"/>
        <pt x="367" y="667" on="0"/>
        <pt x="397" y="787" on="0"/>
        <pt x="429" y="836" on="1"/>
        <pt x="559" y="836" on="1"/>
        <pt x="458" y="758" on="0"/>
        <pt x="440" y="662" on="1"/>
        <pt x="454" y="664" on="0"/>
        <pt x="463" y="664" on="1"/>
      </contour>
      <contour>
        <pt x="120" y="667" on="0"/>
        <pt x="150" y="787" on="0"/>
        <pt x="182" y="836" on="1"/>
        <pt x="312" y="836" on="1"/>
        <pt x="211" y="758" on="0"/>
        <pt x="193" y="662" on="1"/>
        <pt x="207" y="664" on="0"/>
        <pt x="216" y="664" on="1"/>
        <pt x="258" y="664" on="0"/>
        <pt x="302" y="614" on="0"/>
        <pt x="302" y="567" on="1"/>
        <pt x="302" y="519" on="0"/>
        <pt x="258" y="469" on="0"/>
        <pt x="216" y="469" on="1"/>
        <pt x="167" y="469" on="0"/>
        <pt x="120" y="529" on="0"/>
        <pt x="120" y="590" on="1"/>
      </contour>
    </TTGlyph>
    <TTGlyph name="quotedblright" xMin="91" yMin="534" xMax="530" yMax="901">
      <component glyphName="quotedblbase" x="0" y="714" flags="0x4"/>
    </TTGlyph>
    <TTGlyph name="quoteleft" xMin="229" yMin="469" xMax="421" yMax="836">
      <contour>
        <pt x="367" y="664" on="0"/>
        <pt x="411" y="614" on="0"/>
        <pt x="411" y="567" on="1"/>
        <pt x="411" y="519" on="0"/>
        <pt x="367" y="469" on="0"/>
        <pt x="325" y="469" on="1"/>
        <pt x="276" y="469" on="0"/>
        <pt x="229" y="529" on="0"/>
        <pt x="229" y="590" on="1"/>
        <pt x="229" y="667" on="0"/>
        <pt x="259" y="787" on="0"/>
        <pt x="291" y="836" on="1"/>
        <pt x="421" y="836" on="1"/>
        <pt x="320" y="758" on="0"/>
        <pt x="302" y="662" on="1"/>
        <pt x="316" y="664" on="0"/>
        <pt x="325" y="664" on="1"/>
      </contour>
    </TTGlyph>
    <TTGlyph name="quoteright" xMin="229" yMin="534" xMax="421" yMax="901">
      <component glyphName="comma" x="0" y="714" flags="0x4"/>
    </TTGlyph>
    <TTGlyph name="quotesinglbase" xMin="229" yMin="-180" xMax="421" yMax="187">
      <component glyphName="comma" x="0" y="0" flags="0x0"/>
    </TTGlyph>
    <TTGlyph name="quotesingle" xMin="264" yMin="458" xMax="386" yMax="848">
      <contour>
        <pt x="386" y="848" on="1"/>
        <pt x="366" y="458" on="1"/>
        <pt x="284" y="458" on="1"/>
        <pt x="264" y="848" on="1"/>
      </contour>
    </TTGlyph>
    <TTGlyph name="r" xMin="89" yMin="0" xMax="589" yMax="616">
      <contour>
        <pt x="316" y="600" on="1"/>
        <pt x="316" y="537" on="1"/>
        <pt x="346" y="537" on="1"/>
        <pt x="365" y="616" on="0"/>
        <pt x="454" y="616" on="1"/>
        <pt x="518" y="616" on="0"/>
        <pt x="589" y="520" on="0"/>
        <pt x="589" y="433" on="1"/>
        <pt x="589" y="340" on="1"/>
        <pt x="473" y="340" on="1"/>
        <pt x="473" y="417" on="1"/>
        <pt x="473" y="465" on="0"/>
        <pt x="441" y="512" on="0"/>
        <pt x="407" y="512" on="1"/>
        <pt x="361" y="512" on="0"/>
        <pt x="316" y="424" on="0"/>
        <pt x="316" y="333" on="1"/>
        <pt x="316" y="103" on="1"/>
        <pt x="480" y="103" on="1"/>
        <pt x="480" y="0" on="1"/>
        <pt x="107" y="0" on="1"/>
        <pt x="107" y="103" on="1"/>
        <pt x="206" y="103" on="1"/>
        <pt x="206" y="497" on="1"/>
        <pt x="89" y="497" on="1"/>
        <pt x="89" y="600" on="1"/>
      </contour>
    </TTGlyph>
    <TTGlyph name="s" xMin="103" yMin="-16" xMax="562" yMax="616">
      <contour>
        <pt x="216" y="136" on="0"/>
        <pt x="277" y="87" on="0"/>
        <pt x="330" y="87" on="1"/>
        <pt x="380" y="87" on="0"/>
        <pt x="437" y="130" on="0"/>
        <pt x="437" y="169" on="1"/>
        <pt x="437" y="200" on="0"/>
        <pt x="394" y="235" on="0"/>
        <pt x="347" y="242" on="1"/>
        <pt x="287" y="252" on="1"/>
        <pt x="107" y="280" on="0"/>
        <pt x="107" y="431" on="1"/>
        <pt x="107" y="516" on="0"/>
        <pt x="226" y="616" on="0"/>
        <pt x="327" y="616" on="1"/>
        <pt x="432" y="616" on="0"/>
        <pt x="556" y="504" on="0"/>
        <pt x="562" y="404" on="1"/>
        <pt x="455" y="404" on="1"/>
        <pt x="451" y="458" on="0"/>
        <pt x="385" y="513" on="0"/>
        <pt x="327" y="513" on="1"/>
        <pt x="274" y="513" on="0"/>
        <pt x="215" y="470" on="0"/>
        <pt x="215" y="431" on="1"/>
        <pt x="215" y="400" on="0"/>
        <pt x="259" y="366" on="0"/>
        <pt x="307" y="358" on="1"/>
        <pt x="367" y="348" on="1"/>
        <pt x="546" y="319" on="0"/>
        <pt x="546" y="169" on="1"/>
        <pt x="546" y="84" on="0"/>
        <pt x="429" y="-16" on="0"/>
        <pt x="329" y="-16" on="1"/>
        <pt x="230" y="-16" on="0"/>
        <pt x="111" y="89" on="0"/>
        <pt x="103" y="184" on="1"/>
        <pt x="210" y="184" on="1"/>
      </contour>
    </TTGlyph>
    <TTGlyph name="section" xMin="104" yMin="-216" xMax="546" yMax="816">
      <contour>
        <pt x="415" y="655" on="0"/>
        <pt x="371" y="706" on="0"/>
        <pt x="334" y="706" on="1"/>
        <pt x="300" y="706" on="0"/>
        <pt x="260" y="661" on="0"/>
        <pt x="260" y="624" on="1"/>
        <pt x="260" y="534" on="0"/>
        <pt x="368" y="507" on="1"/>
        <pt x="452" y="486" on="0"/>
        <pt x="546" y="381" on="0"/>
        <pt x="546" y="308" on="1"/>
        <pt x="546" y="241" on="0"/>
        <pt x="475" y="149" on="0"/>
        <pt x="410" y="131" on="1"/>
        <pt x="410" y="100" on="1"/>
        <pt x="457" y="84" on="0"/>
        <pt x="506" y="14" on="0"/>
        <pt x="506" y="-36" on="1"/>
        <pt x="506" y="-119" on="0"/>
        <pt x="405" y="-216" on="0"/>
        <pt x="319" y="-216" on="1"/>
        <pt x="227" y="-216" on="0"/>
        <pt x="121" y="-108" on="0"/>
        <pt x="114" y="-7" on="1"/>
        <pt x="231" y="-7" on="1"/>
        <pt x="235" y="-55" on="0"/>
        <pt x="279" y="-106" on="0"/>
        <pt x="316" y="-106" on="1"/>
        <pt x="350" y="-106" on="0"/>
        <pt x="390" y="-61" on="0"/>
        <pt x="390" y="-24" on="1"/>
        <pt x="390" y="66" on="0"/>
        <pt x="282" y="93" on="1"/>
        <pt x="198" y="114" on="0"/>
        <pt x="104" y="219" on="0"/>
        <pt x="104" y="292" on="1"/>
        <pt x="104" y="359" on="0"/>
        <pt x="175" y="451" on="0"/>
        <pt x="240" y="469" on="1"/>
        <pt x="240" y="500" on="1"/>
        <pt x="193" y="516" on="0"/>
        <pt x="144" y="586" on="0"/>
        <pt x="144" y="636" on="1"/>
        <pt x="144" y="719" on="0"/>
        <pt x="245" y="816" on="0"/>
        <pt x="331" y="816" on="1"/>
        <pt x="423" y="816" on="0"/>
        <pt x="529" y="708" on="0"/>
        <pt x="536" y="607" on="1"/>
        <pt x="419" y="607" on="1"/>
      </contour>
      <contour>
        <pt x="220" y="254" on="0"/>
        <pt x="276" y="200" on="0"/>
        <pt x="325" y="200" on="1"/>
        <pt x="374" y="200" on="0"/>
        <pt x="430" y="254" on="0"/>
        <pt x="430" y="300" on="1"/>
        <pt x="430" y="346" on="0"/>
        <pt x="374" y="400" on="0"/>
        <pt x="325" y="400" on="1"/>
        <pt x="276" y="400" on="0"/>
        <pt x="220" y="346" on="0"/>
        <pt x="220" y="300" on="1"/>
      </contour>
    </TTGlyph>
    <TTGlyph name="semicolon" xMin="229" yMin="-180" xMax="421" yMax="608">
      <component glyphName="period" x="0" y="421" flags="0x4"/>
      <component glyphName="comma" x="0" y="0" flags="0x0"/>
    </TTGlyph>
    <TTGlyph name="seven" xMin="77" yMin="0" xMax="553" yMax="800">
      <contour>
        <pt x="286" y="0" on="1"/>
        <pt x="164" y="0" on="1"/>
        <pt x="459" y="690" on="1"/>
        <pt x="77" y="690" on="1"/>
        <pt x="77" y="800" on="1"/>
        <pt x="553" y="800" on="1"/>
        <pt x="553" y="637" on="1"/>
      </contour>
    </TTGlyph>
    <TTGlyph name="six" xMin="67" yMin="-16" xMax="583" yMax="800">
      <contour>
        <pt x="246" y="-16" on="0"/>
        <pt x="130" y="50" on="0"/>
        <pt x="67" y="173" on="0"/>
        <pt x="67" y="256" on="1"/>
        <pt x="67" y="369" on="0"/>
        <pt x="136" y="481" on="1"/>
        <pt x="328" y="800" on="1"/>
        <pt x="461" y="800" on="1"/>
        <pt x="271" y="497" on="1"/>
        <pt x="294" y="481" on="1"/>
        <pt x="306" y="493" on="0"/>
        <pt x="349" y="507" on="0"/>
        <pt x="374" y="507" on="1"/>
        <pt x="434" y="507" on="0"/>
        <pt x="529" y="442" on="0"/>
        <pt x="583" y="328" on="0"/>
        <pt x="583" y="256" on="1"/>
        <pt x="583" y="173" on="0"/>
        <pt x="520" y="50" on="0"/>
        <pt x="403" y="-16" on="0"/>
        <pt x="324" y="-16" on="1"/>
      </contour>
      <contour>
        <pt x="183" y="182" on="0"/>
        <pt x="260" y="94" on="0"/>
        <pt x="325" y="94" on="1"/>
        <pt x="390" y="94" on="0"/>
        <pt x="467" y="182" on="0"/>
        <pt x="467" y="256" on="1"/>
        <pt x="467" y="330" on="0"/>
        <pt x="390" y="418" on="0"/>
        <pt x="325" y="418" on="1"/>
        <pt x="260" y="418" on="0"/>
        <pt x="183" y="330" on="0"/>
        <pt x="183" y="256" on="1"/>
      </contour>
    </TTGlyph>
    <TTGlyph name="slash" xMin="113" yMin="-170" xMax="537" yMax="848">
      <contour>
        <pt x="221" y="-170" on="1"/>
        <pt x="113" y="-170" on="1"/>
        <pt x="429" y="848" on="1"/>
        <pt x="537" y="848" on="1"/>
      </contour>
    </TTGlyph>
    <TTGlyph name="sterling" xMin="87" yMin="0" xMax="583" yMax="816">
      <contour>
        <pt x="143" y="211" on="0"/>
        <pt x="198" y="267" on="0"/>
        <pt x="198" y="309" on="1"/>
        <pt x="198" y="325" on="0"/>
        <pt x="195" y="340" on="1"/>
        <pt x="87" y="340" on="1"/>
        <pt x="87" y="436" on="1"/>
        <pt x="161" y="436" on="1"/>
        <pt x="145" y="476" on="0"/>
        <pt x="128" y="541" on="0"/>
        <pt x="128" y="583" on="1"/>
        <pt x="128" y="693" on="0"/>
        <pt x="244" y="816" on="0"/>
        <pt x="348" y="816" on="1"/>
        <pt x="560" y="816" on="0"/>
        <pt x="583" y="559" on="1"/>
        <pt x="467" y="559" on="1"/>
        <pt x="454" y="706" on="0"/>
        <pt x="348" y="706" on="1"/>
        <pt x="299" y="706" on="0"/>
        <pt x="244" y="642" on="0"/>
        <pt x="244" y="583" on="1"/>
        <pt x="244" y="545" on="0"/>
        <pt x="263" y="483" on="0"/>
        <pt x="283" y="436" on="1"/>
        <pt x="460" y="436" on="1"/>
        <pt x="460" y="340" on="1"/>
        <pt x="312" y="340" on="1"/>
        <pt x="314" y="320" on="0"/>
        <pt x="314" y="309" on="1"/>
        <pt x="314" y="234" on="0"/>
        <pt x="223" y="136" on="0"/>
        <pt x="128" y="110" on="1"/>
        <pt x="563" y="110" on="1"/>
        <pt x="563" y="0" on="1"/>
        <pt x="87" y="0" on="1"/>
        <pt x="87" y="195" on="1"/>
      </contour>
    </TTGlyph>
    <TTGlyph name="t" xMin="79" yMin="-16" xMax="568" yMax="756">
      <contour>
        <pt x="305" y="600" on="1"/>
        <pt x="551" y="600" on="1"/>
        <pt x="551" y="497" on="1"/>
        <pt x="305" y="497" on="1"/>
        <pt x="305" y="193" on="1"/>
        <pt x="305" y="88" on="0"/>
        <pt x="377" y="88" on="1"/>
        <pt x="454" y="88" on="0"/>
        <pt x="463" y="210" on="1"/>
        <pt x="568" y="210" on="1"/>
        <pt x="560" y="99" on="0"/>
        <pt x="461" y="-16" on="0"/>
        <pt x="373" y="-16" on="1"/>
        <pt x="286" y="-16" on="0"/>
        <pt x="195" y="91" on="0"/>
        <pt x="195" y="193" on="1"/>
        <pt x="195" y="497" on="1"/>
        <pt x="79" y="497" on="1"/>
        <pt x="79" y="600" on="1"/>
        <pt x="195" y="600" on="1"/>
        <pt x="195" y="756" on="1"/>
        <pt x="305" y="756" on="1"/>
      </contour>
    </TTGlyph>
    <TTGlyph name="three" xMin="57" yMin="-16" xMax="582" yMax="816">
      <contour>
        <pt x="579" y="108" on="0"/>
        <pt x="444" y="-16" on="0"/>
        <pt x="326" y="-16" on="1"/>
        <pt x="208" y="-16" on="0"/>
        <pt x="71" y="114" on="0"/>
        <pt x="61" y="234" on="1"/>
        <pt x="179" y="234" on="1"/>
        <pt x="186" y="167" on="0"/>
        <pt x="262" y="94" on="0"/>
        <pt x="326" y="94" on="1"/>
        <pt x="390" y="94" on="0"/>
        <pt x="463" y="162" on="0"/>
        <pt x="463" y="221" on="1"/>
        <pt x="463" y="280" on="0"/>
        <pt x="397" y="348" on="0"/>
        <pt x="339" y="348" on="1"/>
        <pt x="253" y="348" on="1"/>
        <pt x="253" y="454" on="1"/>
        <pt x="339" y="454" on="1"/>
        <pt x="398" y="454" on="0"/>
        <pt x="466" y="521" on="0"/>
        <pt x="466" y="579" on="1"/>
        <pt x="466" y="638" on="0"/>
        <pt x="396" y="706" on="0"/>
        <pt x="335" y="706" on="1"/>
        <pt x="268" y="706" on="0"/>
        <pt x="186" y="628" on="0"/>
        <pt x="177" y="556" on="1"/>
        <pt x="57" y="556" on="1"/>
        <pt x="68" y="681" on="0"/>
        <pt x="212" y="816" on="0"/>
        <pt x="335" y="816" on="1"/>
        <pt x="450" y="816" on="0"/>
        <pt x="582" y="690" on="0"/>
        <pt x="582" y="580" on="1"/>
        <pt x="582" y="514" on="0"/>
        <pt x="513" y="427" on="0"/>
        <pt x="454" y="416" on="1"/>
        <pt x="454" y="386" on="1"/>
        <pt x="512" y="376" on="0"/>
        <pt x="579" y="284" on="0"/>
        <pt x="579" y="215" on="1"/>
      </contour>
    </TTGlyph>
    <TTGlyph name="two" xMin="71" yMin="0" xMax="586" yMax="816">
      <contour>
        <pt x="415" y="442" on="0"/>
        <pt x="470" y="526" on="0"/>
        <pt x="470" y="574" on="1"/>
        <pt x="470" y="635" on="0"/>
        <pt x="401" y="706" on="0"/>
        <pt x="341" y="706" on="1"/>
        <pt x="278" y="706" on="0"/>
        <pt x="201" y="628" on="0"/>
        <pt x="193" y="556" on="1"/>
        <pt x="71" y="556" on="1"/>
        <pt x="82" y="681" on="0"/>
        <pt x="223" y="816" on="0"/>
        <pt x="341" y="816" on="1"/>
        <pt x="455" y="816" on="0"/>
        <pt x="586" y="687" on="0"/>
        <pt x="586" y="574" on="1"/>
        <pt x="586" y="501" on="0"/>
        <pt x="510" y="377" on="0"/>
        <pt x="425" y="306" on="1"/>
        <pt x="185" y="110" on="1"/>
        <pt x="571" y="110" on="1"/>
        <pt x="571" y="0" on="1"/>
        <pt x="89" y="0" on="1"/>
        <pt x="89" y="161" on="1"/>
        <pt x="356" y="392" on="1"/>
      </contour>
    </TTGlyph>
    <TTGlyph name="u" xMin="96" yMin="-16" xMax="543" yMax="600">
      <contour>
        <pt x="433" y="0" on="1"/>
        <pt x="433" y="77" on="1"/>
        <pt x="403" y="77" on="1"/>
        <pt x="393" y="34" on="0"/>
        <pt x="321" y="-16" on="0"/>
        <pt x="268" y="-16" on="1"/>
        <pt x="189" y="-16" on="0"/>
        <pt x="96" y="99" on="0"/>
        <pt x="96" y="197" on="1"/>
        <pt x="96" y="600" on="1"/>
        <pt x="206" y="600" on="1"/>
        <pt x="206" y="227" on="1"/>
        <pt x="206" y="87" on="0"/>
        <pt x="320" y="87" on="1"/>
        <pt x="433" y="87" on="0"/>
        <pt x="433" y="227" on="1"/>
        <pt x="433" y="600" on="1"/>
        <pt x="543" y="600" on="1"/>
        <pt x="543" y="0" on="1"/>
      </contour>
    </TTGlyph>
    <TTGlyph name="underscore" xMin="77" yMin="-130" xMax="573" yMax="-50">
      <contour>
        <pt x="573" y="-50" on="1"/>
        <pt x="573" y="-130" on="1"/>
        <pt x="77" y="-130" on="1"/>
        <pt x="77" y="-50" on="1"/>
      </contour>
    </TTGlyph>
    <TTGlyph name="uni0237" xMin="86" yMin="-216" xMax="470" yMax="600">
      <contour>
        <pt x="470" y="600" on="1"/>
        <pt x="470" y="-23" on="1"/>
        <pt x="470" y="-114" on="0"/>
        <pt x="368" y="-216" on="0"/>
        <pt x="278" y="-216" on="1"/>
        <pt x="193" y="-216" on="0"/>
        <pt x="91" y="-126" on="0"/>
        <pt x="86" y="-46" on="1"/>
        <pt x="194" y="-46" on="1"/>
        <pt x="197" y="-80" on="0"/>
        <pt x="240" y="-115" on="0"/>
        <pt x="278" y="-115" on="1"/>
        <pt x="318" y="-115" on="0"/>
        <pt x="360" y="-67" on="0"/>
        <pt x="360" y="-23" on="1"/>
        <pt x="360" y="497" on="1"/>
        <pt x="120" y="497" on="1"/>
        <pt x="120" y="600" on="1"/>
      </contour>
    </TTGlyph>
    <TTGlyph name="uni0306.cy" xMin="11" yMin="880" xMax="333" yMax="1024">
      <contour>
        <pt x="109" y="989" on="0"/>
        <pt x="141" y="956" on="0"/>
        <pt x="172" y="956" on="1"/>
        <pt x="203" y="956" on="0"/>
        <pt x="235" y="989" on="0"/>
        <pt x="238" y="1024" on="1"/>
        <pt x="333" y="1024" on="1"/>
        <pt x="327" y="957" on="0"/>
        <pt x="241" y="880" on="0"/>
        <pt x="172" y="880" on="1"/>
        <pt x="103" y="880" on="0"/>
        <pt x="17" y="957" on="0"/>
        <pt x="11" y="1024" on="1"/>
        <pt x="106" y="1024" on="1"/>
      </contour>
    </TTGlyph>
    <TTGlyph name="uni0307" xMin="0" yMin="692" xMax="168" yMax="848">
      <contour>
        <pt x="46" y="692" on="0"/>
        <pt x="0" y="735" on="0"/>
        <pt x="0" y="770" on="1"/>
        <pt x="0" y="805" on="0"/>
        <pt x="46" y="848" on="0"/>
        <pt x="84" y="848" on="1"/>
        <pt x="122" y="848" on="0"/>
        <pt x="168" y="805" on="0"/>
        <pt x="168" y="770" on="1"/>
        <pt x="168" y="735" on="0"/>
        <pt x="122" y="692" on="0"/>
        <pt x="84" y="692" on="1"/>
      </contour>
    </TTGlyph>
    <TTGlyph name="uni0308" xMin="-135" yMin="865" xMax="235" yMax="1007">
      <contour>
        <pt x="-99" y="865" on="0"/>
        <pt x="-135" y="903" on="0"/>
        <pt x="-135" y="936" on="1"/>
        <pt x="-135" y="969" on="0"/>
        <pt x="-99" y="1007" on="0"/>
        <pt x="-68" y="1007" on="1"/>
        <pt x="-36" y="1007" on="0"/>
        <pt x="0" y="969" on="0"/>
        <pt x="0" y="936" on="1"/>
        <pt x="0" y="903" on="0"/>
        <pt x="-36" y="865" on="0"/>
        <pt x="-68" y="865" on="1"/>
      </contour>
      <contour>
        <pt x="100" y="969" on="0"/>
        <pt x="136" y="1007" on="0"/>
        <pt x="168" y="1007" on="1"/>
        <pt x="199" y="1007" on="0"/>
        <pt x="235" y="969" on="0"/>
        <pt x="235" y="936" on="1"/>
        <pt x="235" y="903" on="0"/>
        <pt x="199" y="865" on="0"/>
        <pt x="168" y="865" on="1"/>
        <pt x="136" y="865" on="0"/>
        <pt x="100" y="903" on="0"/>
        <pt x="100" y="936" on="1"/>
      </contour>
    </TTGlyph>
    <TTGlyph name="uni043D" xMin="107" yMin="0" xMax="544" yMax="600">
      <contour>
        <pt x="217" y="600" on="1"/>
        <pt x="217" y="347" on="1"/>
        <pt x="433" y="347" on="1"/>
        <pt x="433" y="243" on="1"/>
        <pt x="217" y="243" on="1"/>
        <pt x="217" y="0" on="1"/>
        <pt x="107" y="0" on="1"/>
        <pt x="107" y="600" on="1"/>
      </contour>
      <contour>
        <pt x="434" y="600" on="1"/>
        <pt x="544" y="600" on="1"/>
        <pt x="544" y="0" on="1"/>
        <pt x="434" y="0" on="1"/>
      </contour>
    </TTGlyph>
    <TTGlyph name="uni043E" xMin="76" yMin="-16" xMax="574" yMax="616">
      <component glyphName="o" x="0" y="0" flags="0x0"/>
    </TTGlyph>
    <TTGlyph name="uni20BD" xMin="47" yMin="0" xMax="606" yMax="800">
      <contour>
        <pt x="472" y="800" on="0"/>
        <pt x="606" y="672" on="0"/>
        <pt x="606" y="560" on="1"/>
        <pt x="606" y="448" on="0"/>
        <pt x="472" y="320" on="0"/>
        <pt x="355" y="320" on="1"/>
        <pt x="251" y="320" on="1"/>
        <pt x="251" y="240" on="1"/>
        <pt x="409" y="240" on="1"/>
        <pt x="409" y="148" on="1"/>
        <pt x="251" y="148" on="1"/>
        <pt x="251" y="0" on="1"/>
        <pt x="141" y="0" on="1"/>
        <pt x="141" y="148" on="1"/>
        <pt x="47" y="148" on="1"/>
        <pt x="47" y="240" on="1"/>
        <pt x="141" y="240" on="1"/>
        <pt x="141" y="320" on="1"/>
        <pt x="47" y="320" on="1"/>
        <pt x="47" y="412" on="1"/>
        <pt x="141" y="412" on="1"/>
        <pt x="141" y="800" on="1"/>
        <pt x="355" y="800" on="1"/>
      </contour>
      <contour>
        <pt x="359" y="422" on="1"/>
        <pt x="420" y="422" on="0"/>
        <pt x="490" y="494" on="0"/>
        <pt x="490" y="556" on="1"/>
        <pt x="490" y="618" on="0"/>
        <pt x="420" y="690" on="0"/>
        <pt x="359" y="690" on="1"/>
        <pt x="251" y="690" on="1"/>
        <pt x="251" y="422" on="1"/>
      </contour>
    </TTGlyph>
    <TTGlyph name="v" xMin="57" yMin="0" xMax="593" yMax="600">
      <contour>
        <pt x="171" y="600" on="1"/>
        <pt x="328" y="62" on="1"/>
        <pt x="485" y="600" on="1"/>
        <pt x="593" y="600" on="1"/>
        <pt x="411" y="0" on="1"/>
        <pt x="239" y="0" on="1"/>
        <pt x="57" y="600" on="1"/>
      </contour>
    </TTGlyph>
    <TTGlyph name="w" xMin="27" yMin="0" xMax="623" yMax="600">
      <contour>
        <pt x="144" y="600" on="1"/>
        <pt x="204" y="75" on="1"/>
        <pt x="250" y="600" on="1"/>
        <pt x="408" y="600" on="1"/>
        <pt x="451" y="73" on="1"/>
        <pt x="511" y="600" on="1"/>
        <pt x="623" y="600" on="1"/>
        <pt x="526" y="0" on="1"/>
        <pt x="378" y="0" on="1"/>
        <pt x="327" y="557" on="1"/>
        <pt x="275" y="0" on="1"/>
        <pt x="124" y="0" on="1"/>
        <pt x="27" y="600" on="1"/>
      </contour>
    </TTGlyph>
    <TTGlyph name="x" xMin="66" yMin="0" xMax="584" yMax="600">
      <contour>
        <pt x="233" y="285" on="1"/>
        <pt x="66" y="600" on="1"/>
        <pt x="186" y="600" on="1"/>
        <pt x="323" y="336" on="1"/>
        <pt x="470" y="600" on="1"/>
        <pt x="584" y="600" on="1"/>
        <pt x="410" y="295" on="1"/>
        <pt x="573" y="0" on="1"/>
        <pt x="453" y="0" on="1"/>
        <pt x="322" y="244" on="1"/>
        <pt x="191" y="0" on="1"/>
        <pt x="77" y="0" on="1"/>
      </contour>
    </TTGlyph>
    <TTGlyph name="y" xMin="43" yMin="-216" xMax="605" yMax="600">
      <contour>
        <pt x="166" y="600" on="1"/>
        <pt x="343" y="83" on="1"/>
        <pt x="486" y="600" on="1"/>
        <pt x="605" y="600" on="1"/>
        <pt x="404" y="-81" on="1"/>
        <pt x="384" y="-148" on="0"/>
        <pt x="307" y="-216" on="0"/>
        <pt x="251" y="-216" on="1"/>
        <pt x="180" y="-216" on="0"/>
        <pt x="95" y="-131" on="0"/>
        <pt x="88" y="-52" on="1"/>
        <pt x="196" y="-52" on="1"/>
        <pt x="202" y="-84" on="0"/>
        <pt x="228" y="-114" on="0"/>
        <pt x="250" y="-114" on="1"/>
        <pt x="269" y="-114" on="0"/>
        <pt x="296" y="-84" on="0"/>
        <pt x="305" y="-52" on="1"/>
        <pt x="333" y="50" on="1"/>
        <pt x="244" y="50" on="1"/>
        <pt x="43" y="600" on="1"/>
      </contour>
    </TTGlyph>
    <TTGlyph name="yen" xMin="38" yMin="0" xMax="612" yMax="800">
      <contour>
        <pt x="326" y="458" on="1"/>
        <pt x="487" y="800" on="1"/>
        <pt x="612" y="800" on="1"/>
        <pt x="406" y="387" on="1"/>
        <pt x="542" y="387" on="1"/>
        <pt x="542" y="295" on="1"/>
        <pt x="382" y="295" on="1"/>
        <pt x="382" y="215" on="1"/>
        <pt x="542" y="215" on="1"/>
        <pt x="542" y="123" on="1"/>
        <pt x="382" y="123" on="1"/>
        <pt x="382" y="0" on="1"/>
        <pt x="268" y="0" on="1"/>
        <pt x="268" y="123" on="1"/>
        <pt x="108" y="123" on="1"/>
        <pt x="108" y="215" on="1"/>
        <pt x="268" y="215" on="1"/>
        <pt x="268" y="295" on="1"/>
        <pt x="108" y="295" on="1"/>
        <pt x="108" y="387" on="1"/>
        <pt x="244" y="387" on="1"/>
        <pt x="38" y="800" on="1"/>
        <pt x="165" y="800" on="1"/>
      </contour>
    </TTGlyph>
    <TTGlyph name="z" xMin="116" yMin="0" xMax="534" yMax="600">
      <contour>
        <pt x="534" y="600" on="1"/>
        <pt x="534" y="414" on="1"/>
        <pt x="179" y="103" on="1"/>
        <pt x="534" y="103" on="1"/>
        <pt x="534" y="0" on="1"/>
        <pt x="116" y="0" on="1"/>
        <pt x="116" y="186" on="1"/>
        <pt x="471" y="497" on="1"/>
        <pt x="116" y="497" on="1"/>
        <pt x="116" y="600" on="1"/>
      </contour>
    </TTGlyph>
    <TTGlyph name="zero" xMin="57" yMin="-16" xMax="593" yMax="816">
      <contour>
        <pt x="189" y="-16" on="0"/>
        <pt x="57" y="190" on="0"/>
        <pt x="57" y="400" on="1"/>
        <pt x="57" y="610" on="0"/>
        <pt x="189" y="816" on="0"/>
        <pt x="325" y="816" on="1"/>
        <pt x="461" y="816" on="0"/>
        <pt x="593" y="610" on="0"/>
        <pt x="593" y="400" on="1"/>
        <pt x="593" y="190" on="0"/>
        <pt x="461" y="-16" on="0"/>
        <pt x="325" y="-16" on="1"/>
      </contour>
      <contour>
        <pt x="171" y="357" on="0"/>
        <pt x="172" y="338" on="1"/>
        <pt x="460" y="585" on="1"/>
        <pt x="444" y="648" on="0"/>
        <pt x="377" y="709" on="0"/>
        <pt x="325" y="709" on="1"/>
        <pt x="245" y="709" on="0"/>
        <pt x="171" y="561" on="0"/>
        <pt x="171" y="400" on="1"/>
      </contour>
      <contour>
        <pt x="206" y="152" on="0"/>
        <pt x="273" y="91" on="0"/>
        <pt x="325" y="91" on="1"/>
        <pt x="405" y="91" on="0"/>
        <pt x="479" y="239" on="0"/>
        <pt x="479" y="400" on="1"/>
        <pt x="479" y="423" on="0"/>
        <pt x="477" y="463" on="1"/>
        <pt x="189" y="216" on="1"/>
      </contour>
    </TTGlyph>
</ttFont>
